<svg xmlns="http://www.w3.org/2000/svg" width="101.257" height="92.355" viewBox="0 0 101.257 92.355"><g transform="translate(285.476 -2753.645)"><path d="M8,0H71a8,8,0,0,1,8,8V72H0V8A8,8,0,0,1,8,0Z" transform="translate(-270 2774)" fill="#2d2931"/><g transform="translate(-805.623 1005.182) rotate(-45)"><g transform="translate(-886.323 1640.376)" fill="#f0eadd"><path d="M 50 68.24417877197266 L 4 68.24417877197266 C 3.172899961471558 68.24417877197266 2.5 67.57128143310547 2.5 66.74417877197266 L 2.5 4.000000476837158 C 2.5 3.172900438308716 3.172899961471558 2.500000476837158 4 2.500000476837158 L 50 2.500000476837158 C 50.82709884643555 2.500000476837158 51.5 3.172900438308716 51.5 4.000000476837158 L 51.5 66.74417877197266 C 51.5 67.57128143310547 50.82709884643555 68.24417877197266 50 68.24417877197266 Z" stroke="none"/><path d="M 5 5 L 5 65.74417114257812 L 49 65.74417114257812 L 49 5 L 5 5 M 4 0 L 50 0 C 52.20914459228516 0 54 1.790863037109375 54 4 L 54 66.74417114257812 C 54 68.95331573486328 52.20914459228516 70.74417877197266 50 70.74417877197266 L 4 70.74417877197266 C 1.790855407714844 70.74417877197266 0 68.95331573486328 0 66.74417114257812 L 0 4 C 0 1.790863037109375 1.790855407714844 0 4 0 Z" stroke="none" fill="#2d2931"/></g><path d="M2.026,52.674a2.026,2.026,0,0,1,0-4.053H35.974a2.026,2.026,0,0,1,0,4.053Zm0-8.1a2.026,2.026,0,1,1,0-4.052H35.974a2.026,2.026,0,1,1,0,4.052Zm0-8.1a2.026,2.026,0,1,1,0-4.052H35.974a2.026,2.026,0,1,1,0,4.052Zm0-8.1a2.026,2.026,0,1,1,0-4.052H35.974a2.026,2.026,0,1,1,0,4.052Zm0-8.1a2.026,2.026,0,1,1,0-4.052H35.974a2.026,2.026,0,1,1,0,4.052Zm0-8.1a2.026,2.026,0,1,1,0-4.052H35.974a2.026,2.026,0,1,1,0,4.052Zm0-8.1A2.026,2.026,0,0,1,2.026,0H35.974a2.026,2.026,0,1,1,0,4.052Z" transform="translate(-878.323 1649.411)" fill="#2d2931"/></g><g transform="translate(-270 2792)" fill="#eca198"><path d="M 75.55522155761719 51.5 L 1.814351916313171 51.5 L -12.62316703796387 7.224942684173584 L -12.66235256195068 7.104800224304199 L -12.71343803405762 6.98922872543335 C -13.23405265808105 5.811500072479248 -12.88510990142822 4.860728740692139 -12.50070953369141 4.270514488220215 C -11.78942394256592 3.178428649902344 -10.44803810119629 2.5 -8.999995231628418 2.5 L 54.00000381469727 2.5 C 55.47770309448242 2.5 57.17676162719727 3.205842971801758 58.66153335571289 4.43652868270874 C 60.10533142089844 5.633256912231445 61.19846343994141 7.207942962646484 61.58566284179688 8.648799896240234 L 61.60276031494141 8.712414741516113 L 61.62317657470703 8.775056838989258 L 75.55522155761719 51.5 Z" stroke="none"/><path d="M -9 5 C -9.685501098632812 5 -10.20001983642578 5.318866729736328 -10.40583038330078 5.634899139404297 C -10.49935150146484 5.778465270996094 -10.49331665039062 5.828182220458984 -10.4268798828125 5.978450775146484 L -10.32469940185547 6.209617614746094 L 3.628681182861328 49 L 72.11045074462891 49 L 59.20550155639648 9.424835205078125 L 59.17129898071289 9.297584533691406 C 58.92108154296875 8.366451263427734 58.09476470947266 7.213901519775391 57.0661506652832 6.361282348632812 C 56.03776550292969 5.508899688720703 54.89154815673828 5 54 5 L -9 5 M -9 0 L 54 0 C 58.41828155517578 0 62.93353271484375 4.031368255615234 64 8 L 79 54 L 0 54 L -15 8 C -16.75433349609375 4.031368255615234 -13.41828155517578 0 -9 0 Z" stroke="none" fill="#2d2931"/></g></g></svg> 