<svg xmlns="http://www.w3.org/2000/svg" width="2076.315" height="564.134" viewBox="0 0 2076.315 564.134"><g transform="translate(82.211 -477.701)" fill="#b5d68a"><path d="M 1991.604736328125 1039.334594726562 L 1989.104736328125 1039.334594726562 L -77.21099853515625 1039.334594726562 L -79.71099853515625 1039.334594726562 L -79.71099853515625 1036.834594726562 L -79.71099853515625 492.9998779296875 L -79.71099853515625 490.8869934082031 L -77.62757110595703 490.5348815917969 C -56.98389053344727 487.04541015625 -35.29678344726562 484.4077758789062 -13.16836357116699 482.6956787109375 C 8.227688789367676 481.0404052734375 30.67242622375488 480.200927734375 53.54216384887695 480.200927734375 C 79.1968994140625 480.200927734375 106.2555847167969 481.2575073242188 133.9671630859375 483.3412170410156 C 160.3424224853516 485.3243713378906 188.1745300292969 488.3038330078125 216.6900634765625 492.1964721679688 C 243.6126861572266 495.8714599609375 272.0782165527344 500.4891052246094 301.29638671875 505.9206848144531 C 328.5679626464844 510.9901428222656 357.5274353027344 516.9619750976562 387.3703308105469 523.6698608398438 C 415.1266479492188 529.9088134765625 443.6258544921875 536.7556762695312 474.495849609375 544.6019897460938 C 501.9634704589844 551.5833129882812 530.6700439453125 559.1962280273438 562.255859375 567.8751220703125 C 620.8750610351562 583.9822387695312 680.4210815429688 601.3170166015625 738.0066528320312 618.0809326171875 C 783.2371826171875 631.248291015625 830.0074462890625 644.8638305664062 875.3482055664062 657.5903930664062 C 926.1113891601562 671.8388061523438 969.9829711914062 683.5280151367188 1009.470336914062 693.3262329101562 C 1056.7587890625 705.0601196289062 1099.030883789062 714.4296264648438 1138.7021484375 721.9701538085938 C 1160.164794921875 726.0498657226562 1181.111083984375 729.6251220703125 1200.959838867188 732.5972290039062 C 1221.758178710938 735.7114868164062 1242.0810546875 738.2725219726562 1261.364501953125 740.2098999023438 C 1305.499755859375 744.6435546875 1350.887451171875 748.5106811523438 1396.26611328125 751.7041015625 C 1437.892700195312 754.63330078125 1480.484252929688 757.0640869140625 1522.857666015625 758.9290771484375 C 1595.605346679688 762.1309204101562 1669.380859375 763.7543334960938 1742.135009765625 763.7543334960938 C 1776.66748046875 763.7543334960938 1811.129516601562 763.3859252929688 1844.564208984375 762.6596069335938 C 1871.312744140625 762.0785522460938 1897.466918945312 761.2685546875 1922.300903320312 760.251708984375 C 1964.584838867188 758.5203857421875 1988.683227539062 756.7664794921875 1988.921630859375 756.7490844726562 L 1991.604736328125 756.552001953125 L 1991.604736328125 759.2422485351562 L 1991.604736328125 1036.834594726562 L 1991.604736328125 1039.334594726562 Z" stroke="none"/><path d="M 53.5421142578125 482.7010498046875 C 8.5028076171875 482.7010498046875 -35.2144775390625 485.9009399414062 -77.2110595703125 492.9998779296875 L -77.2110595703125 1036.834594726562 L 1989.104736328125 1036.834594726562 L 1989.104736328125 759.2422485351562 C 1989.104736328125 759.2422485351562 1893.64306640625 766.2542114257812 1742.134887695312 766.2542114257812 C 1613.946166992188 766.2542114257812 1445.631469726562 761.2330932617188 1261.114379882812 742.697265625 C 901.49169921875 706.5707397460938 430.41455078125 482.7010498046875 53.5421142578125 482.7010498046875 M 53.5419921875 477.700927734375 C 79.2589111328125 477.700927734375 106.3809814453125 478.7598876953125 134.1544189453125 480.8480224609375 C 160.5802001953125 482.8351440429688 188.462890625 485.8198852539062 217.0283203125 489.7193603515625 C 243.990478515625 493.39990234375 272.4959716796875 498.0238647460938 301.7532958984375 503.4625244140625 C 329.055419921875 508.5380249023438 358.04541015625 514.5159301757812 387.9185791015625 521.2306518554688 C 415.6981201171875 527.4749145507812 444.2191162109375 534.3269653320312 475.11181640625 542.1788330078125 C 502.59521484375 549.1643676757812 531.3170166015625 556.7811889648438 562.9183349609375 565.46435546875 C 621.5560302734375 581.5767211914062 681.1112060546875 598.9141235351562 738.7056884765625 615.6806640625 C 783.930419921875 628.84619140625 830.6949462890625 642.4601440429688 876.02392578125 655.1832885742188 C 926.7623291015625 669.4248657226562 970.6099243164062 681.1077880859375 1010.072326660156 690.89990234375 C 1057.315673828125 702.6224975585938 1099.543701171875 711.9822387695312 1139.1689453125 719.5140991210938 C 1160.599365234375 723.5877685546875 1181.513671875 727.1575317382812 1201.329956054688 730.1248779296875 C 1222.08837890625 733.2330322265625 1242.370971679688 735.7891235351562 1261.614135742188 737.7222290039062 C 1305.724853515625 742.153564453125 1351.087646484375 746.0185546875 1396.441528320312 749.2101440429688 C 1438.046508789062 752.1380615234375 1480.615966796875 754.5675048828125 1522.967529296875 756.4314575195312 C 1595.679443359375 759.6317138671875 1669.417846679688 761.2543334960938 1742.134887695312 761.2543334960938 C 1776.657348632812 761.2543334960938 1811.10888671875 760.88623046875 1844.532836914062 760.159912109375 C 1871.268920898438 759.5791015625 1897.41015625 758.7691040039062 1922.230712890625 757.7525024414062 C 1964.465209960938 756.0227661132812 1988.50048828125 754.2730712890625 1988.738403320312 754.2556762695312 L 1994.104736328125 753.8614501953125 L 1994.104736328125 1041.834594726562 L -82.2110595703125 1041.834594726562 L -82.2110595703125 488.7741088867188 L -78.0445556640625 488.0698852539062 C -57.326904296875 484.5678100585938 -35.5643310546875 481.9212036132812 -13.361083984375 480.2033081054688 C 8.098876953125 478.5427856445312 30.6083984375 477.700927734375 53.5419921875 477.700927734375 Z" stroke="none" fill="#2d2931"/></g></svg>