<svg xmlns="http://www.w3.org/2000/svg" width="603.305" height="594.68" viewBox="0 0 603.305 594.68"><g transform="translate(-0.004 0.02)"><g transform="translate(0.004 -0.02)"><path d="M180.31,105.22a76.819,76.819,0,0,1,8.93,6.4,73,73,0,0,1,7.74,7.47,70,70,0,0,1,6.45,8.46,67.881,67.881,0,0,1,5.07,9.34,64.594,64.594,0,0,1,2.6,6.85,63.231,63.231,0,0,1,1.82,7,64.462,64.462,0,0,1,1,7.21,67,67,0,0,1,.21,7.37l-5.51,220.42c-.31-.4-.64-.79-1-1.17s-.66-.77-1-1.15-.69-.74-1-1.11a13.777,13.777,0,0,0-1.08-1.08,49.359,49.359,0,0,0-16.28-10.56,51.523,51.523,0,0,0-9.4-2.73,53.933,53.933,0,0,0-10-.93,55.873,55.873,0,0,0-10.23,1A54.49,54.49,0,0,0,126,388a52,52,0,0,0-4.69,7.18,50.259,50.259,0,0,0-5.44,16.05,88,88,0,0,1-11.41-1.4,86.3,86.3,0,0,1-11-2.85A83.28,83.28,0,0,1,83,402.74a80.754,80.754,0,0,1-9.7-5.63,78.6,78.6,0,0,1-9.4-7.44,76.931,76.931,0,0,1-8-8.63,74.812,74.812,0,0,1-11.5-20.25,73.425,73.425,0,0,1-2.4-7.68,72.5,72.5,0,0,1-1.57-7.84,75.856,75.856,0,0,1-.71-8,78,78,0,0,1,.15-8.08l5.46-78.79h83.35a5.78,5.78,0,0,0,3.82-1.44,5.25,5.25,0,0,0,1.21-1.57,4.64,4.64,0,0,0,.51-1.91l7-152.3a87.744,87.744,0,0,1,10.44,1.21,83.419,83.419,0,0,1,10.07,2.42,81.092,81.092,0,0,1,18.63,8.38Z" transform="translate(-0.684 -15.6)" fill="#bcdeda"/><path d="M186.28,97.69a87,87,0,0,1,10.06,7.18,82.64,82.64,0,0,1,8.73,8.4,79.637,79.637,0,0,1,7.29,9.51A76.088,76.088,0,0,1,221.05,141a70.663,70.663,0,0,1,2.06,7.94,69.2,69.2,0,0,1,1.17,8.13,74.13,74.13,0,0,1,.26,8.31l-5.56,251a47.21,47.21,0,0,0-3.73-19.24,47.88,47.88,0,0,0-10.68-15.59,50,50,0,0,0-16-10.45,52.089,52.089,0,0,0-19.72-3.82,54.2,54.2,0,0,0-20.078,3.853A54.841,54.841,0,0,0,132,381.64a53.06,53.06,0,0,0-11.77,15.71,49.71,49.71,0,0,0-5,19.39l-.06,1.32V422a100.289,100.289,0,0,1-13-1.56,94.631,94.631,0,0,1-24.39-8.07,92.91,92.91,0,0,1-11-6.42A91.1,91.1,0,0,1,56,397.52a88.58,88.58,0,0,1-9-9.76,85.336,85.336,0,0,1-7.35-10.94,83.71,83.71,0,0,1-8.28-20.64,82.409,82.409,0,0,1-2.52-17.86,84.157,84.157,0,0,1,.19-9.11l6-83.7a4.64,4.64,0,0,1,.55-1.91,5.378,5.378,0,0,1,1.25-1.6,5.85,5.85,0,0,1,3.86-1.44h83.12l7.38-152a4.1,4.1,0,0,1,.49-1.76,4.811,4.811,0,0,1,1.16-1.43,5.271,5.271,0,0,1,1.66-1,5.71,5.71,0,0,1,2-.36,101.477,101.477,0,0,1,13.35.87,97.622,97.622,0,0,1,12.84,2.59,93,93,0,0,1,12.19,4.27,91,91,0,0,1,11.39,5.95Zm22.35,288.09,5.51-220.42a67.01,67.01,0,0,0-.21-7.37,64.467,64.467,0,0,0-1-7.21,63.239,63.239,0,0,0-1.82-7,64.591,64.591,0,0,0-2.6-6.85,66.829,66.829,0,0,0-5.07-9.34,70.006,70.006,0,0,0-6.45-8.46,73,73,0,0,0-7.74-7.47,76.823,76.823,0,0,0-8.93-6.4,81.091,81.091,0,0,0-18.63-8.38,83,83,0,0,0-10.07-2.42,85.725,85.725,0,0,0-10.44-1.2l-7,152.29a4.64,4.64,0,0,1-.51,1.91,5.25,5.25,0,0,1-1.21,1.57,5.78,5.78,0,0,1-3.82,1.44H45.32l-5.46,78.79a78,78,0,0,0-.15,8.08,75.85,75.85,0,0,0,.71,8A72.5,72.5,0,0,0,42,353.11a71.179,71.179,0,0,0,2.43,7.68,74.936,74.936,0,0,0,4.95,10.58A75.937,75.937,0,0,0,55.91,381a77.793,77.793,0,0,0,8,8.63,79.535,79.535,0,0,0,9.41,7.44A81.444,81.444,0,0,0,83,402.74,84.04,84.04,0,0,0,93.43,407a85.074,85.074,0,0,0,11,2.85,87.988,87.988,0,0,0,11.41,1.4,50.26,50.26,0,0,1,5.44-16.05A52,52,0,0,1,126,388a53.544,53.544,0,0,1,5.92-6.44A54.312,54.312,0,0,1,168.64,367a55.284,55.284,0,0,1,10.12.92,52,52,0,0,1,9.47,2.73,49.079,49.079,0,0,1,16.31,10.56c.37.35.73.72,1.08,1.08a12.938,12.938,0,0,1,1,1.12c.29.38.67.75,1,1.14s.65.77,1,1.17" transform="translate(-0.684 -16.6)" fill="#2d2931"/><path d="M114.74,20.46a4.5,4.5,0,0,1,.54-1.88A5.22,5.22,0,0,1,116.56,17a6,6,0,0,1,1.82-1,6.53,6.53,0,0,1,2.18-.38L136.5,84.06a5.71,5.71,0,0,0-2,.36,5.27,5.27,0,0,0-1.66,1,4.811,4.811,0,0,0-1.16,1.43,4.1,4.1,0,0,0-.49,1.76Z" transform="translate(-0.684 -15.6)" fill="#2d2931"/><path d="M398.68,15.62a6.259,6.259,0,0,1,2.19.38,5.78,5.78,0,0,1,1.81,1,5,5,0,0,1,1.24,1.53,4.251,4.251,0,0,1,.49,1.89l-8.47,68.11a4.049,4.049,0,0,0-.44-1.76,4.711,4.711,0,0,0-1.13-1.43,5.321,5.321,0,0,0-1.65-1,5.78,5.78,0,0,0-2-.35Z" transform="translate(-0.684 -15.6)" fill="#2d2931"/><path d="M483.33,250.43h83.18a69.57,69.57,0,0,1-6,28.49,72.7,72.7,0,0,1-16.79,23.44,79.193,79.193,0,0,1-25.36,15.89,86.322,86.322,0,0,1-31.53,5.84,5.52,5.52,0,0,0-2.09.41,4.793,4.793,0,0,0-3.09,4.72l4,87.53a37.32,37.32,0,0,1-10.75,28,39,39,0,0,1-12.71,8.59,40.75,40.75,0,0,1-15.87,3.16,42.481,42.481,0,0,1-16.11-3.16,43.053,43.053,0,0,1-13.31-8.59,41.224,41.224,0,0,1-9.12-12.66,38.821,38.821,0,0,1-3.61-15.38L398,170.08h76.36l3.45,75.43a4.789,4.789,0,0,0,.5,1.91A5.421,5.421,0,0,0,479.5,249a5.9,5.9,0,0,0,1.74,1,5.829,5.829,0,0,0,2.09.43Z" transform="translate(-0.684 -15.6)" fill="#bcdeda"/><path d="M343.43,101.63c1.84-.69,3.71-1.35,5.59-2s3.78-1.19,5.69-1.72,3.84-1,5.78-1.46,3.89-.84,5.84-1.2c1.61-.29,3.22-.55,4.84-.79s3.24-.44,4.87-.61,3.26-.33,4.9-.45,3.28-.2,4.92-.27l1.5,67.74a51.361,51.361,0,0,0-16.92,4.65,47.521,47.521,0,0,0-13.61,9.63,43.28,43.28,0,0,0-9.07,13.51,40.812,40.812,0,0,0-3.22,16.3l2.2,211.75a38.229,38.229,0,0,1-3.06,15.38,39.428,39.428,0,0,1-8.68,12.7,40.9,40.9,0,0,1-13,8.59,42,42,0,0,1-32,0,40.9,40.9,0,0,1-13-8.59,39.432,39.432,0,0,1-8.68-12.66,38.061,38.061,0,0,1-3.06-15.38L267.46,205q0-2.92.22-5.84t.54-5.81c.23-1.93.52-3.86.85-5.77s.73-3.81,1.17-5.7a108,108,0,0,1,3.14-10.77,104.986,104.986,0,0,1,4.24-10.32,106.3,106.3,0,0,1,5.31-9.85,110.661,110.661,0,0,1,6.35-9.35,114.353,114.353,0,0,1,11.12-12.66,118.306,118.306,0,0,1,12.85-11,122.737,122.737,0,0,1,14.41-9.13,128.106,128.106,0,0,1,15.77-7.17Z" transform="translate(-0.684 -15.6)" fill="#bcdeda"/><path d="M571.3,240.6a5.85,5.85,0,0,1,3.86,1.44,5.384,5.384,0,0,1,1.25,1.56,4.641,4.641,0,0,1,.55,1.91,78.941,78.941,0,0,1-4.58,33,81,81,0,0,1-17.25,27.7,88.051,88.051,0,0,1-27.45,19.55,96.12,96.12,0,0,1-35,8.49l4,82.53a5.519,5.519,0,0,0-.54-2.09,5.87,5.87,0,0,0-1.27-1.7,6.172,6.172,0,0,0-1.82-1.15,5.91,5.91,0,0,0-2.18-.42,5.55,5.55,0,0,0-2.14.42,5.311,5.311,0,0,0-1.71,1.15,5.057,5.057,0,0,0-1.11,1.7,5.189,5.189,0,0,0-.34,2.09l-4-87.53a4.72,4.72,0,0,1,1.42-3.63,5,5,0,0,1,1.67-1.09,5.52,5.52,0,0,1,2.09-.41,86.32,86.32,0,0,0,31.53-5.84,79.19,79.19,0,0,0,25.36-15.89,72.7,72.7,0,0,0,16.79-23.44,69.568,69.568,0,0,0,6-28.49h-83.1a5.83,5.83,0,0,1-2.09-.39,6,6,0,0,1-1.74-1,5.218,5.218,0,0,1-1.2-1.57,4.64,4.64,0,0,1-.51-1.91l-3.45-75.43H398l6.16,246.67a5.293,5.293,0,0,0-.49-2.09,5.561,5.561,0,0,0-1.23-1.7,5.74,5.74,0,0,0-4-1.57,5.639,5.639,0,0,0-2.15.42,5.441,5.441,0,0,0-1.74,1.15,5.17,5.17,0,0,0-1.15,1.7,5.048,5.048,0,0,0-.39,2.09L387.57,170.4a40.229,40.229,0,0,0-12.91,3.89,37.329,37.329,0,0,0-10.35,7.61,34,34,0,0,0-6.86,10.52,32.078,32.078,0,0,0-2.4,12.59l2.79,211.74a48.181,48.181,0,0,1-3.84,19.6,50.4,50.4,0,0,1-11,16.16,52.089,52.089,0,0,1-16.58,11,53.52,53.52,0,0,1-40.8,0,52.089,52.089,0,0,1-16.58-11,50.24,50.24,0,0,1-11-16.16,48.359,48.359,0,0,1-3.85-19.6L257,205c0-2.11.11-4.22.26-6.32s.34-4.2.6-6.29.57-4.17.94-6.24.8-4.12,1.28-6.17a118.274,118.274,0,0,1,3.43-11.66,113.128,113.128,0,0,1,4.62-11.17,115.573,115.573,0,0,1,5.78-10.65,118.535,118.535,0,0,1,6.9-10.1,125.214,125.214,0,0,1,12.05-13.67,128.154,128.154,0,0,1,13.92-11.82,133.53,133.53,0,0,1,15.58-9.86,139.443,139.443,0,0,1,17.06-7.77q3-1.12,6.05-2.12t6.15-1.85q3.1-.86,6.26-1.58t6.32-1.29c2.18-.4,4.37-.74,6.57-1s4.42-.54,6.64-.74,4.44-.35,6.67-.45,4.45-.15,6.68-.15a5.781,5.781,0,0,1,2,.35,5.32,5.32,0,0,1,1.65,1,4.709,4.709,0,0,1,1.13,1.43,4.051,4.051,0,0,1,.44,1.76l1.81,72.09H479.1a5.77,5.77,0,0,1,2,.37,5.589,5.589,0,0,1,1.7,1,5.18,5.18,0,0,1,1.19,1.49,4.45,4.45,0,0,1,.49,1.83l3.66,75.24ZM387.36,160.91l-1.5-67.74q-2.46.1-4.92.27c-1.64.12-3.27.27-4.9.45s-3.25.38-4.87.61-3.23.5-4.84.79q-2.93.54-5.84,1.2c-1.94.45-3.87.93-5.78,1.46s-3.81,1.1-5.69,1.72-3.75,1.27-5.59,2a128.1,128.1,0,0,0-15.77,7.21A122.731,122.731,0,0,0,313.25,118a118.3,118.3,0,0,0-12.85,11,114.361,114.361,0,0,0-11.12,12.66,110.657,110.657,0,0,0-6.35,9.35,106.329,106.329,0,0,0-5.31,9.85,105.017,105.017,0,0,0-4.24,10.32,107.4,107.4,0,0,0-3.14,10.78q-.66,2.82-1.17,5.69c-.33,1.92-.62,3.84-.85,5.77s-.42,3.87-.54,5.81-.2,3.89-.22,5.84l-2.2,211.75a38.06,38.06,0,0,0,3.06,15.38A39.432,39.432,0,0,0,277,444.79a40.9,40.9,0,0,0,13,8.59,42,42,0,0,0,32,0,40.9,40.9,0,0,0,13-8.59,39.428,39.428,0,0,0,8.68-12.66,38.229,38.229,0,0,0,3.06-15.38L344.54,205a40.809,40.809,0,0,1,3.22-16.3,43.281,43.281,0,0,1,9.07-13.51,47.52,47.52,0,0,1,13.61-9.63,51.36,51.36,0,0,1,16.92-4.65" transform="translate(-0.684 -15.6)" fill="#2d2931"/><path d="M252.16,145.83q.06-3.42.3-6.83t.67-6.79c.28-2.25.63-4.5,1-6.73s.88-4.45,1.42-6.65a120.629,120.629,0,0,1,3.77-12.58,123.074,123.074,0,0,1,11.42-23.51,127.529,127.529,0,0,1,7.57-10.87,134.412,134.412,0,0,1,13.21-14.71A140.238,140.238,0,0,1,306.8,44.45a146.434,146.434,0,0,1,17.05-10.58,154,154,0,0,1,18.67-8.35q3.27-1.2,6.61-2.28c2.23-.71,4.47-1.37,6.74-2s4.54-1.18,6.84-1.7,4.59-1,6.91-1.39,4.78-.79,7.19-1.11,4.83-.58,7.26-.8,4.86-.37,7.3-.48,4.87-.16,7.31-.16l-8,68.44q-3.34,0-6.68.15t-6.67.45c-2.22.2-4.43.44-6.64.74s-4.39.64-6.57,1-4.23.81-6.32,1.29-4.19,1-6.26,1.58-4.12,1.19-6.15,1.85-4.06,1.37-6.05,2.12a139.445,139.445,0,0,0-17.06,7.77,133.54,133.54,0,0,0-15.58,9.86,128.144,128.144,0,0,0-13.92,11.82,125.2,125.2,0,0,0-12.05,13.67,118.535,118.535,0,0,0-6.9,10.1,115.57,115.57,0,0,0-5.78,10.65,113.147,113.147,0,0,0-4.62,11.17A118.3,118.3,0,0,0,260,180c-.48,2.05-.91,4.1-1.28,6.17s-.68,4.15-.94,6.24-.46,4.19-.6,6.29-.18,4.19-.18,6.3Z" transform="translate(-0.684 -15.6)" fill="#2d2931"/><path d="M366.33,95.29,372,27.68c1.75-.31,3.52-.6,5.29-.85s3.54-.47,5.33-.66,3.57-.35,5.36-.48,3.58-.22,5.38-.28l-7.53,67.76q-2.46.1-4.92.27c-1.64.12-3.27.27-4.9.45s-3.25.38-4.87.61S367.94,95,366.33,95.29Z" transform="translate(-0.684 -15.6)" fill="#bcdeda"/><path d="M366.32,95.3q2.83-33.81,5.69-67.62h0l-5.7,67.61h0Z" transform="translate(-0.684 -15.6)" fill="#bcdeda"/><path d="M120.56,15.62a111.771,111.771,0,0,1,14.6.94,107,107,0,0,1,14,2.78,102.538,102.538,0,0,1,13.32,4.58A98.53,98.53,0,0,1,175,30.26l11.3,67.43a91,91,0,0,0-11.4-5.9,93,93,0,0,0-12.19-4.27,97.621,97.621,0,0,0-12.84-2.59,101.474,101.474,0,0,0-13.35-.87Z" transform="translate(-0.684 -15.6)" fill="#2d2931"/><path d="M167,98.65q-3-1.16-6.2-2.09c-2.1-.61-4.23-1.15-6.38-1.6s-4.34-.83-6.54-1.12-4.43-.5-6.68-.63L125.63,25.45c2.45.13,4.89.36,7.3.67s4.8.71,7.15,1.2,4.69,1.06,7,1.73,4.55,1.41,6.77,2.24Z" transform="translate(-0.684 -15.6)" fill="#bcdeda"/><path d="M167,98.65,153.83,31.29l.42.16.41.16.41.16.41.16,13,67.32-.37-.15-.38-.15-.38-.15Z" transform="translate(-0.684 -15.6)" fill="#bcdeda"/><path d="M343.43,101.63,347,34.49q3-1.12,6.11-2.11c2.05-.66,4.13-1.27,6.22-1.84s4.2-1.09,6.32-1.57,4.25-.9,6.39-1.29q-2.85,33.81-5.69,67.62-2.94.53-5.84,1.2T354.7,98c-1.91.52-3.81,1.1-5.69,1.71S345.27,100.94,343.43,101.63Z" transform="translate(-0.684 -15.6)" fill="#bcdeda"/><path d="M178.66,104.23c-.82-.47-1.65-.93-2.48-1.38s-1.67-.87-2.52-1.29-1.71-.81-2.57-1.2-1.74-.76-2.62-1.11h0l-13-67.32c1,.38,1.91.78,2.86,1.19s1.88.85,2.8,1.29,1.85.91,2.76,1.39,1.81,1,2.71,1.48h0Q172.63,70.76,178.66,104.23Z" transform="translate(-0.684 -15.6)" fill="#bcdeda"/><path d="M178.66,104.23q-6-33.47-12-66.95l.45.27.45.26.45.27.45.27,11.9,66.87-.41-.25c-.14-.08-.28-.16-.41-.25l-.42-.24A2.438,2.438,0,0,1,178.66,104.23Z" transform="translate(-0.684 -15.6)" fill="#bcdeda"/><path d="M183.86,107.54l-.87-.6-.88-.58-.9-.57-.9-.57-11.9-66.87,1,.6,1,.62,1,.62.95.64Q178.08,74.19,183.86,107.54Z" transform="translate(-0.684 -15.6)" fill="#bcdeda"/><path d="M319.94,113.38q.66-33.13,1.33-66.27c2-1.25,4-2.45,6.1-3.61s4.18-2.25,6.33-3.31,4.32-2,6.53-3,4.46-1.85,6.74-2.7l-3.54,67.15c-2.08.78-4.13,1.62-6.15,2.5s-4,1.82-6,2.8-3.89,2-5.78,3.08S321.77,112.22,319.94,113.38Z" transform="translate(-0.684 -15.6)" fill="#bcdeda"/><path d="M319.94,113.38h0q.64-33.14,1.31-66.27h0Q320.61,80.25,319.94,113.38Z" transform="translate(-0.684 -15.6)" fill="#bcdeda"/><path d="M224,154.33c-.22-1.82-.52-3.62-.88-5.41s-.78-3.55-1.27-5.31-1.06-3.49-1.68-5.22-1.31-3.42-2.07-5.11a76.733,76.733,0,0,0-5.73-10.5,79.641,79.641,0,0,0-7.29-9.51,82.634,82.634,0,0,0-8.73-8.4,87,87,0,0,0-10.06-7.18L175,30.26A94.106,94.106,0,0,1,186,38a88.643,88.643,0,0,1,9.53,9,85.727,85.727,0,0,1,8,10.22,82.347,82.347,0,0,1,6.25,11.3c.82,1.82,1.57,3.65,2.25,5.51s1.29,3.72,1.83,5.61,1,3.8,1.39,5.72.7,3.87,1,5.82C218.48,110.12,221.63,135.38,224,154.33Z" transform="translate(-0.684 -15.6)" fill="#2d2931"/><path d="M197.72,120c-1-1.16-2-2.3-3.12-3.4s-2.2-2.16-3.36-3.2-2.35-2-3.58-3-2.5-1.9-3.8-2.8q-5.78-33.36-11.57-66.71,2.15,1.45,4.15,3t3.91,3.23q1.91,1.66,3.67,3.44c1.18,1.19,2.32,2.4,3.41,3.65Z" transform="translate(-0.684 -15.6)" fill="#bcdeda"/><path d="M197.72,120,187.43,54.17c.06.06.11.13.16.19l.16.18.16.19a1.458,1.458,0,0,1,.16.19q2.69,17.16,5.35,34.33l1.33,8.49,1.26,8.14,1.2,7.67,1.1,7.09a1.151,1.151,0,0,0-.14-.17l-.15-.18-.15-.17Z" transform="translate(-0.684 -15.6)" fill="#bcdeda"/><path d="M198.31,120.64,188.07,54.92q1.69,2,3.24,4.07t2.93,4.27q1.39,2.17,2.63,4.46t2.3,4.65a32.439,32.439,0,0,0,.58,4l.6,4.12q1.53,10.67,3.08,21.31l.61,4.24q2.22,15.41,4.45,30.8-1-2.21-2.11-4.32T204,128.39q-1.28-2-2.69-4A38.893,38.893,0,0,0,198.31,120.64Z" transform="translate(-0.684 -15.6)" fill="#bcdeda"/><path d="M289.28,141.59q-.79-32.07-1.6-64.14Q291.13,73,295,68.83c2.56-2.77,5.24-5.41,8-7.95s5.72-4.93,8.75-7.22,6.16-4.45,9.4-6.49q-.66,33.14-1.31,66.27-4.44,2.84-8.59,6t-8,6.72q-3.84,3.52-7.35,7.38T289.28,141.59Z" transform="translate(-0.684 -15.6)" fill="#bcdeda"/><path d="M289.26,141.61q-.79-32.06-1.6-64.13h0q.81,32.07,1.6,64.14h0Z" transform="translate(-0.684 -15.6)" fill="#bcdeda"/><path d="M208.5,136.89h0q-4.67-32.25-9.32-64.49h0c.68,1.51,1.31,3,1.87,4.57s1.08,3.1,1.54,4.67.85,3.15,1.2,4.74.62,3.2.85,4.82l8.88,63.15c-.21-1.5-.47-3-.79-4.47s-.68-2.95-1.1-4.41-.89-2.9-1.41-4.33S209.12,138.29,208.5,136.89Z" transform="translate(-0.684 -15.6)" fill="#bcdeda"/><path d="M204.64,91.2l8.88,63.16c-.21-1.51-.47-3-.79-4.48s-.68-2.95-1.1-4.41-.89-2.9-1.41-4.33-1.09-2.85-1.72-4.25a66.834,66.834,0,0,0-5.07-9.34,70,70,0,0,0-6.45-8.46,73,73,0,0,0-7.74-7.47,76.819,76.819,0,0,0-8.93-6.4,81.091,81.091,0,0,0-18.63-8.38,83,83,0,0,0-10.07-2.42,85.719,85.719,0,0,0-10.44-1.2L125.63,25.45A97.6,97.6,0,0,1,137,26.74a93.791,93.791,0,0,1,11,2.6,89.111,89.111,0,0,1,10.5,3.88,86.1,86.1,0,0,1,9.86,5.13,81.471,81.471,0,0,1,9.75,6.87,77.523,77.523,0,0,1,8.45,8,75,75,0,0,1,7,9.1,73.181,73.181,0,0,1,5.53,10.05c.67,1.51,1.3,3,1.87,4.57s1.08,3.1,1.53,4.67.85,3.15,1.2,4.74S204.41,89.58,204.64,91.2Z" transform="translate(-0.684 -15.6)" fill="#2d2931"/><path d="M280.9,154.41q-1.2-31.57-2.41-63.14c.67-1.19,1.37-2.38,2.09-3.55s1.47-2.32,2.23-3.47,1.55-2.29,2.36-3.42,1.64-2.24,2.49-3.35q.81,32.07,1.6,64.13c-.77,1-1.53,2.07-2.27,3.12s-1.45,2.1-2.15,3.17-1.37,2.14-2,3.23S281.52,153.31,280.9,154.41Z" transform="translate(-0.684 -15.6)" fill="#bcdeda"/><path d="M280,156.06q-1.25-31.51-2.5-63l.25-.44.24-.44.25-.44c.08-.15.16-.3.25-.44,0,1.18.1,2.75.15,3.94l1.11,29.06q.57,15.08,1.15,30.14c-.08.14-.15.28-.23.41l-.22.41c-.08.14-.15.28-.23.41Z" transform="translate(-0.684 -15.6)" fill="#bcdeda"/><path d="M213.52,154.35c.07.51.14,1,.2,1.52s.11,1,.16,1.53.09,1,.12,1.53.07,1,.09,1.53q-4.43-31.34-8.84-62.68c0-.55-.06-1.1-.1-1.65s-.08-1.1-.13-1.65-.11-1.1-.17-1.64-.13-1.1-.21-1.64C207.31,110.15,210.86,135.41,213.52,154.35Z" transform="translate(-0.684 -15.6)" fill="#bcdeda"/><path d="M213.52,154.36c.13.9.24,1.81.33,2.72s.16,1.82.21,2.74.08,1.84.09,2.76,0,1.85,0,2.78l-8.86-62.3v-3c0-1,0-2-.1-3s-.13-2-.22-3-.21-1.95-.35-2.93Z" transform="translate(-0.684 -15.6)" fill="#2d2931"/><path d="M214.1,160.62q-1.66-11.73-3.31-23.46l-2.91-20.59-.38-2.73-1.89-13.37a19.6,19.6,0,0,1-.36-2.52v-.17q4.41,31.35,8.84,62.68v.16Z" transform="translate(-0.684 -15.6)" fill="#bcdeda"/><path d="M405.9,82.38h89.18l-16.66,62.66H397.07Z" transform="translate(-0.004 0.02)" fill="#2d2931"/><path d="M214.1,160.62v4.74l-8.86-62.3V99.22a10.789,10.789,0,0,0-.05-1.27Z" transform="translate(-0.684 -15.6)" fill="#bcdeda"/><path d="M495.76,98a6.571,6.571,0,0,1,2.23.39,6.212,6.212,0,0,1,1.87,1.09,5.459,5.459,0,0,1,1.31,1.61,4.809,4.809,0,0,1,.56,2l-17.21,62.3a4.452,4.452,0,0,0-.49-1.83,5.18,5.18,0,0,0-1.19-1.49,5.59,5.59,0,0,0-1.7-1,5.769,5.769,0,0,0-2-.37Z" transform="translate(-0.684 -15.6)" fill="#2d2931"/><path d="M216.12,91.17,224,154.33c.12.91.21,1.82.29,2.73s.15,1.83.19,2.75.08,1.85.09,2.77,0,1.86,0,2.79l-7.85-62.3v-3c0-1,0-2-.08-3s-.12-2-.2-3S216.24,92.15,216.12,91.17Z" transform="translate(-0.684 -15.6)" fill="#2d2931"/><path d="M489.91,92.53l-16.25,61.93H397.3l8.88-61.93Z" transform="translate(-0.004 0.02)" fill="#2d2931"/><path d="M406.18,92.53h83.73l-16.25,61.93H397.3Z" transform="translate(-0.004 0.02)" fill="#bcdeda"/><path d="M280,156.06c-1.09,2-2.11,4.1-3.06,6.19s-1.84,4.22-2.65,6.37-1.56,4.34-2.24,6.55-1.28,4.45-1.81,6.71c-.21.92-.42,1.84-.61,2.77s-.36,1.85-.53,2.78-.32,1.86-.46,2.79-.27,1.87-.38,2.81q-1.85-30.06-3.67-60.13.2-1.52.42-3,.24-1.5.51-3c.18-1,.38-2,.59-3s.43-2,.67-3c.58-2.44,1.25-4.86,2-7.24s1.56-4.74,2.46-7.06,1.86-4.61,2.91-6.87,2.17-4.48,3.36-6.68c0,1.13.11,2.62.15,3.74q.54,13.8,1.09,27.59l1.14,28.71.06,1.48.05,1.33a.529.529,0,0,1,0,.16Z" transform="translate(-0.684 -15.6)" fill="#bcdeda"/><path d="M268.25,193.1Q266.4,163,264.58,133v-.08Q266.42,163,268.26,193h0Z" transform="translate(-0.684 -15.6)" fill="#bcdeda"/><path d="M348.39,142.59a43.469,43.469,0,0,1,4.39-16.47,47.231,47.231,0,0,1,10.09-13.56,52.249,52.249,0,0,1,14.53-9.63,57,57,0,0,1,17.79-4.66l-7.83,62.64a51.459,51.459,0,0,0-16.24,4.33,48.2,48.2,0,0,0-13.27,8.93,43.847,43.847,0,0,0-9.21,12.58,41,41,0,0,0-4,15.25Q346.51,172.29,348.39,142.59Z" transform="translate(-0.684 -15.6)" fill="#2d2931"/><path d="M344.62,202l3.77-59.41a43.469,43.469,0,0,1,4.39-16.47,47.23,47.23,0,0,1,10.09-13.56,52.249,52.249,0,0,1,14.53-9.63,57,57,0,0,1,17.79-4.66l-7.83,62.64a51.459,51.459,0,0,0-16.24,4.33,48.2,48.2,0,0,0-13.27,8.93,43.85,43.85,0,0,0-9.21,12.58A41,41,0,0,0,344.62,202Z" transform="translate(-0.684 -15.6)" fill="#bcdeda"/><path d="M355.15,202q2.4-29.72,4.79-59.41a34.232,34.232,0,0,1,3.47-12.48,36.878,36.878,0,0,1,7.66-10.33,41,41,0,0,1,11-7.47,44.421,44.421,0,0,1,13.41-3.83l-7.87,61.9A40.241,40.241,0,0,0,375.33,174a37.723,37.723,0,0,0-10,6.92,34.5,34.5,0,0,0-7,9.58A32.22,32.22,0,0,0,355.15,202Z" transform="translate(-0.684 -16.6)" fill="#2d2931"/><path d="M268.25,193.1c-.12,1-.23,2-.32,3s-.18,2-.24,3-.12,2-.16,3-.06,2-.07,3l-3.76-59.17c0-1.08,0-2.15.08-3.22s.1-2.15.18-3.22.16-2.14.26-3.21.23-2.14.36-3.2q1.68,27.59,3.37,55.17l.15,2.48v.33l.05.95v.61A.9.9,0,0,1,268.25,193.1Z" transform="translate(-0.684 -15.6)" fill="#bcdeda"/><path d="M393.39,25.41l-7.53,67.76q-2.46.1-4.92.27c-1.64.12-3.27.27-4.9.45s-3.25.38-4.87.61-3.23.5-4.84.79q-2.93.54-5.84,1.2c-1.94.45-3.87.93-5.78,1.46s-3.81,1.1-5.69,1.72-3.75,1.27-5.59,2a128.107,128.107,0,0,0-15.77,7.21A122.728,122.728,0,0,0,313.25,118a118.306,118.306,0,0,0-12.85,11,114.343,114.343,0,0,0-11.12,12.66,110.663,110.663,0,0,0-6.35,9.35,106.344,106.344,0,0,0-5.31,9.85,105.011,105.011,0,0,0-4.24,10.32,107.411,107.411,0,0,0-3.14,10.78q-.66,2.82-1.17,5.69c-.33,1.92-.62,3.84-.85,5.77s-.42,3.87-.54,5.81-.2,3.89-.22,5.84L263.7,145.9c0-2.11.11-4.21.25-6.31s.34-4.19.6-6.27.57-4.16.94-6.22.8-4.12,1.29-6.15a115.007,115.007,0,0,1,3.45-11.62,112.654,112.654,0,0,1,4.65-11.13,115.379,115.379,0,0,1,5.83-10.61,120.6,120.6,0,0,1,7-10.07A124.827,124.827,0,0,1,299.89,63.9a129.55,129.55,0,0,1,14.08-11.78,136.182,136.182,0,0,1,15.77-9.82A141.424,141.424,0,0,1,347,34.49q3-1.12,6.11-2.11t6.23-1.84c2.1-.57,4.2-1.09,6.32-1.57s4.26-.91,6.4-1.29c1.75-.31,3.52-.6,5.29-.85s3.54-.47,5.33-.66,3.57-.35,5.36-.47S391.59,25.47,393.39,25.41Z" transform="translate(-0.684 -15.6)" fill="#2d2931"/><path d="M344.62,202q1.89-29.72,3.77-59.41a4.3,4.3,0,0,1-.05.8v2.44L344.54,205v-2.26C344.54,202.49,344.61,202.25,344.62,202Z" transform="translate(-0.684 -15.6)" fill="#2d2931"/><path d="M348.39,142.59a4.3,4.3,0,0,1-.05.8v2.44L344.54,205v-3C345.75,184.18,347.26,160.41,348.39,142.59Z" transform="translate(-0.684 -15.6)" fill="#bcdeda"/><path d="M359.94,142.61a4.356,4.356,0,0,1-.05.8,4.277,4.277,0,0,0,0,.8v1.63L355.05,205v-2.99Q357.55,172.31,359.94,142.61Z" transform="translate(-0.684 -15.6)" fill="#2d2931"/><path d="M490.92,411.39a5.905,5.905,0,0,1,2.18.42,6.169,6.169,0,0,1,1.82,1.15,5.866,5.866,0,0,1,1.27,1.7,5.52,5.52,0,0,1,.54,2.09q.22,4.68.21,9.37t-.28,9.4c-.17,3.13-.43,6.26-.76,9.39s-.76,6.25-1.26,9.36a182.507,182.507,0,0,1-3.85,17.9,180.472,180.472,0,0,1-5.65,17.42,176.589,176.589,0,0,1-7.47,16.85,185.8,185.8,0,0,1-20,31.27,164.857,164.857,0,0,1-12.16,13.94q-6.49,6.65-13.59,12.74a187.262,187.262,0,0,1-15,11.48q-3.9,2.7-7.95,5.22t-8.23,4.83q-4.18,2.31-8.48,4.43t-8.7,4q-4.49,1.93-9.07,3.64c-3,1.13-6.14,2.2-9.26,3.18s-6.26,1.89-9.43,2.72-6.35,1.57-9.56,2.24-6.67,1.29-10,1.81-6.71.95-10.07,1.3-6.72.6-10.09.78-6.73.26-10.1.26-6.74-.09-10.1-.26-6.73-.44-10.09-.78-6.72-.78-10.07-1.3-6.69-1.12-10-1.81-6.39-1.41-9.56-2.24-6.31-1.74-9.43-2.72-6.21-2-9.27-3.18-6.08-2.35-9.06-3.64-5.83-2.6-8.7-4-5.69-2.89-8.48-4.43-5.53-3.16-8.23-4.83-5.35-3.42-8-5.22q-7.81-5.4-15-11.47a176.319,176.319,0,0,1-13.59-12.75,186,186,0,0,1-35.76-52.75A178.059,178.059,0,0,1,115.09,422v-3.93l.06-1.32a49.71,49.71,0,0,1,5-19.39A53.23,53.23,0,0,1,132,381.63a54.809,54.809,0,0,1,16.8-10.53,54.191,54.191,0,0,1,20.07-3.85,52.089,52.089,0,0,1,19.72,3.82,49.811,49.811,0,0,1,16,10.46A47.511,47.511,0,0,1,219,416.43a82.13,82.13,0,0,0,6.17,33.18,84.412,84.412,0,0,0,18.4,27.5,87.313,87.313,0,0,0,27.93,18.73,89.74,89.74,0,0,0,69,0,87.561,87.561,0,0,0,27.93-18.7,84.212,84.212,0,0,0,18.4-27.4,81.379,81.379,0,0,0,6.18-33,5.05,5.05,0,0,1,.39-2.09,5.168,5.168,0,0,1,1.15-1.7,5.44,5.44,0,0,1,1.74-1.15,5.64,5.64,0,0,1,2.15-.42,5.74,5.74,0,0,1,4,1.57,5.56,5.56,0,0,1,1.23,1.7,5.289,5.289,0,0,1,.49,2.09,38.821,38.821,0,0,0,3.61,15.38,41.219,41.219,0,0,0,9.12,12.66,43,43,0,0,0,13.32,8.59,42.39,42.39,0,0,0,16.1,3.16,40.748,40.748,0,0,0,15.87-3.16,39,39,0,0,0,12.71-8.59,37.32,37.32,0,0,0,10.75-28,5.191,5.191,0,0,1,.34-2.09,5.06,5.06,0,0,1,1.11-1.7,5.311,5.311,0,0,1,1.71-1.15A5.55,5.55,0,0,1,490.92,411.39Zm-7.37,40.69A49.8,49.8,0,0,1,476,458.5a50.806,50.806,0,0,1-8.8,4.87,51.616,51.616,0,0,1-9.86,3.08,52.876,52.876,0,0,1-10.69,1.08,54.282,54.282,0,0,1-37.16-14.69,52.837,52.837,0,0,1-8.44-10.09A93,93,0,0,1,388.2,470.9a96.762,96.762,0,0,1-21.36,22.62,98.887,98.887,0,0,1-28,15A101.27,101.27,0,0,1,267,506.17,98.62,98.62,0,0,1,235.43,485a95.2,95.2,0,0,1-20.71-31,91.61,91.61,0,0,1-6.86-37.25,37.34,37.34,0,0,0-11.17-27.64,39,39,0,0,0-12.6-8.32,40.9,40.9,0,0,0-15.59-3,42.706,42.706,0,0,0-29,11.356,41.578,41.578,0,0,0-9.244,12.384,39,39,0,0,0-3.89,15.26,168.151,168.151,0,0,0,5.52,51.46,170,170,0,0,0,21.38,48.11q4.72,7.33,10.12,14.14t11.48,13.08q6.09,6.27,12.8,12a165.641,165.641,0,0,0,14.08,10.77q3.68,2.52,7.47,4.88t7.74,4.53q3.93,2.18,8,4.16c2.7,1.32,5.42,2.57,8.18,3.75s5.64,2.34,8.51,3.41,5.77,2,8.7,3,5.88,1.77,8.85,2.55,6,1.47,9,2.1,6.28,1.21,9.43,1.7,6.3.89,9.45,1.21,6.32.56,9.48.73,6.33.24,9.49.24,6.33-.08,9.49-.24,6.32-.41,9.48-.73,6.31-.73,9.45-1.21,6.29-1,9.42-1.7,6-1.33,9-2.1,5.92-1.62,8.85-2.55,5.83-1.91,8.7-3,5.71-2.2,8.51-3.41,5.48-2.43,8.18-3.75,5.35-2.71,8-4.16,5.2-2.95,7.74-4.53,5-3.2,7.47-4.88q7.33-5.07,14.08-10.77a168.04,168.04,0,0,0,12.8-12q6.06-6.27,11.48-13.08a170.358,170.358,0,0,0,10.12-14.14,173.815,173.815,0,0,0,8.75-15.22,168.052,168.052,0,0,0,16.08-49.02" transform="translate(-0.684 -15.6)" fill="#2d2931"/><path d="M168.5,377.75a40.9,40.9,0,0,1,15.59,3,39,39,0,0,1,12.6,8.32,37.34,37.34,0,0,1,11.17,27.64A91.609,91.609,0,0,0,214.72,454a95.2,95.2,0,0,0,20.71,31A98.618,98.618,0,0,0,267,506.17a101.269,101.269,0,0,0,71.82,2.38,98.888,98.888,0,0,0,28-15A96.761,96.761,0,0,0,388.2,470.9a93,93,0,0,0,12.88-28.15,52.84,52.84,0,0,0,8.44,10.09,54.282,54.282,0,0,0,37.16,14.69,52.876,52.876,0,0,0,10.69-1.08,50.945,50.945,0,0,0,9.86-3.09,49.648,49.648,0,0,0,16.32-11.29,167.961,167.961,0,0,1-16.08,49.03,173.825,173.825,0,0,1-8.75,15.22q-4.73,7.33-10.12,14.14a171.748,171.748,0,0,1-11.48,13.08q-6.09,6.27-12.8,12a165.716,165.716,0,0,1-14.08,10.77q-3.67,2.52-7.47,4.88c-2.54,1.57-5.12,3.09-7.74,4.53s-5.28,2.84-8,4.16-5.42,2.57-8.18,3.75-5.64,2.34-8.51,3.41-5.77,2-8.7,3-5.88,1.77-8.85,2.55-6,1.47-9,2.1-6.27,1.21-9.42,1.7-6.29.88-9.45,1.21-6.32.56-9.48.73-6.32.24-9.49.24-6.32-.08-9.49-.24-6.32-.41-9.48-.73-6.3-.73-9.45-1.21-6.29-1-9.42-1.7-6-1.33-9-2.1-5.92-1.62-8.85-2.55-5.83-1.91-8.7-3-5.71-2.2-8.51-3.41-5.48-2.44-8.18-3.75-5.35-2.71-8-4.16-5.2-3-7.74-4.53-5-3.2-7.47-4.88q-7.35-5.07-14.08-10.77a173.219,173.219,0,0,1-12.8-12q-6.06-6.25-11.48-13.08t-10.12-14.14a172.589,172.589,0,0,1-12.66-23.44,170.621,170.621,0,0,1-8.72-24.67,168.151,168.151,0,0,1-5.52-51.46,39,39,0,0,1,3.89-15.26,41.58,41.58,0,0,1,9.24-12.38,42.76,42.76,0,0,1,29-11.36Z" transform="translate(-0.684 -15.6)" fill="#bcdeda"/><path d="M13.88,168.69h91.31l17.95,56.29H40.02Z" transform="translate(-0.004 0.02)" fill="#2d2931"/><path d="M505.45,168.69h91.31l-26.14,56.29H487.5Z" transform="translate(-0.004 0.02)" fill="#2d2931"/><path d="M8.3,189.62a5.25,5.25,0,0,1,.62-2.06,5.93,5.93,0,0,1,1.39-1.69,6.58,6.58,0,0,1,4.24-1.56L40.7,240.6a5.85,5.85,0,0,0-3.86,1.4,5.38,5.38,0,0,0-1.25,1.56,4.64,4.64,0,0,0-.55,1.91Z" transform="translate(-0.684 -15.6)" fill="#2d2931"/><path d="M500.85,195l-17.52,55.48a5.831,5.831,0,0,1-2.09-.39,6,6,0,0,1-1.74-1,5.221,5.221,0,0,1-1.2-1.57,4.64,4.64,0,0,1-.51-1.91l16.95-55.89a5.119,5.119,0,0,0,.57,2.08,5.69,5.69,0,0,0,1.33,1.69,6.47,6.47,0,0,0,4.21,1.56Z" transform="translate(-0.684 -15.6)" fill="#2d2931"/><path d="M477.79,245.51l16.95-55.89a5.119,5.119,0,0,0,.57,2.08,5.689,5.689,0,0,0,1.33,1.69,6.47,6.47,0,0,0,4.21,1.56l-17.52,55.48a5.83,5.83,0,0,1-2.09-.39,5.9,5.9,0,0,1-1.74-1,5.421,5.421,0,0,1-1.21-1.57A4.79,4.79,0,0,1,477.79,245.51Z" transform="translate(-0.684 -15.6)" fill="#bcdeda"/><path d="M134.21,245.51a4.64,4.64,0,0,1-.51,1.91,5.25,5.25,0,0,1-1.21,1.57,5.78,5.78,0,0,1-3.82,1.44L111.14,195a6.48,6.48,0,0,0,2.3-.42,6.339,6.339,0,0,0,1.91-1.14,5.721,5.721,0,0,0,1.34-1.69,5.12,5.12,0,0,0,.57-2.08q4.42,14.63,8.87,29.25,2.13,7.06,4.28,14.12c.59,2,1.38,4.56,2,6.51A42.811,42.811,0,0,1,134.21,245.51Z" transform="translate(-0.684 -15.6)" fill="#bcdeda"/><path d="M500.18,179.33h91.4l-25.75,55.48H482.65Z" transform="translate(-0.004 0.02)" fill="#bcdeda"/><path d="M18.88,179.33h91.59l17.52,55.48H44.64Z" transform="translate(-0.004 0.02)" fill="#bcdeda"/><path d="M110.47,179.33l17.52,55.48H44.64L18.88,179.33Z" transform="translate(-0.004 0.02)" fill="#2d2931"/><path d="M591.58,179.33l-25.75,55.48H482.65l17.53-55.48Z" transform="translate(-0.004 0.02)" fill="#2d2931"/><path d="M117.25,189.62l17,55.89a4.64,4.64,0,0,1-.51,1.91,5.249,5.249,0,0,1-1.21,1.57,5.78,5.78,0,0,1-3.82,1.44L111.14,195a6.481,6.481,0,0,0,2.3-.42,6.339,6.339,0,0,0,1.91-1.14,5.721,5.721,0,0,0,1.34-1.69A5,5,0,0,0,117.25,189.62Z" transform="translate(-0.684 -15.6)" fill="#2d2931"/><path d="M568.85,286.63A78.251,78.251,0,0,0,577,256.38a80.575,80.575,0,0,0-.06-10.87,4.64,4.64,0,0,0-.55-1.91,5.38,5.38,0,0,0-1.25-1.56,5.849,5.849,0,0,0-3.86-1.44l26.14-56.29a6.567,6.567,0,0,1,2.309.42,6.742,6.742,0,0,1,1.941,1.14,5.931,5.931,0,0,1,1.39,1.69,5.251,5.251,0,0,1,.62,2.06,86.014,86.014,0,0,1,.15,11.78,84.655,84.655,0,0,1-1.44,11.42,83.514,83.514,0,0,1-2.94,11,82.554,82.554,0,0,1-4.37,10.4Z" transform="translate(-0.684 -15.6)" fill="#2d2931"/><path d="M566.51,250.43,592.26,195a75.889,75.889,0,0,1-.42,8.57A72.491,72.491,0,0,1,585,227.55l-25.3,53a68.288,68.288,0,0,0,2.91-7.08,66.837,66.837,0,0,0,2.13-7.41,69.947,69.947,0,0,0,1.3-7.68A69.047,69.047,0,0,0,566.51,250.43Z" transform="translate(-0.684 -15.6)" fill="#bcdeda"/><path d="M585,227.63l-25.29,53a69.517,69.517,0,0,0,6.8-30.16L592.26,195a75.632,75.632,0,0,1-1.8,16.93,73.665,73.665,0,0,1-5.46,15.7Z" transform="translate(-0.684 -15.6)" fill="#2d2931"/><path d="M486.8,324.09a5.912,5.912,0,0,0-1.64.24,5.26,5.26,0,0,0-1.41.68,4.78,4.78,0,0,0-1.11,1,4.4,4.4,0,0,0-.74,1.32l17.77-49a5.181,5.181,0,0,1,.81-1.43,5.479,5.479,0,0,1,1.22-1.13,5.808,5.808,0,0,1,1.55-.73,6.219,6.219,0,0,1,1.8-.26q4.05,0,8-.32t7.76-.93c2.55-.41,5.06-.92,7.51-1.52s4.87-1.29,7.23-2.07l-21,49.62q-3.22,1.08-6.58,1.91T501.1,323c-2.31.37-4.66.66-7.05.85S489.25,324.09,486.8,324.09Z" transform="translate(-0.684 -15.6)" fill="#bcdeda"/><path d="M499.67,278.42a5,5,0,0,1,.81-1.44,5.226,5.226,0,0,1,1.22-1.12,5.412,5.412,0,0,1,1.55-.74,6.22,6.22,0,0,1,1.8-.26,97.321,97.321,0,0,0,26-3.49,90.06,90.06,0,0,0,22.7-9.75,83.55,83.55,0,0,0,18.31-14.94A77.913,77.913,0,0,0,585,227.63l-25.29,53a72.347,72.347,0,0,1-11.86,17.56,77.067,77.067,0,0,1-16.73,13.76,81.71,81.71,0,0,1-20.67,9,87.831,87.831,0,0,1-23.65,3.2,5.858,5.858,0,0,0-1.64.24,5.26,5.26,0,0,0-1.41.68,5,5,0,0,0-1.12,1,4.728,4.728,0,0,0-.73,1.32l1.63-4.49.82-2.27L486,316l1.7-4.7.87-2.38,1.76-4.84,1.79-4.93.91-2.5,1.84-5.08,1.88-5.18,1-2.63Z" transform="translate(-0.684 -15.6)" fill="#2d2931"/><path d="M556.46,286.62l.55-1.16.59-1.24.62-1.28.62-1.32.63-1.32.63-1.3.6-1.27.57-1.2,2.21-4.62c.71-1.5,1.66-3.5,2.38-5s1.76-3.7,2.52-5.28l2.61-5.49,2.67-5.59,2.67-5.6,2.63-5.5c.75-1.59,1.76-3.7,2.51-5.28.33-.54.65-1.08,1-1.63s.61-1.09.91-1.64.59-1.11.87-1.67.56-1.12.83-1.68l-25.3,53c-.24.53-.5,1-.76,1.56s-.53,1-.8,1.53l-.84,1.52C557.05,285.62,556.76,286.12,556.46,286.62Z" transform="translate(-0.684 -15.6)" fill="#bcdeda"/><path d="M514.51,319.64l1.07-2.52,1.14-2.7,1.2-2.84,1.24-2.91,1.25-2.95,1.24-2.93,1.21-2.86,1.15-2.71,1.28-3,1.38-3.25,1.46-3.43,1.49-3.53,1.52-3.58,1.51-3.57,1.47-3.48,1.41-3.32a90.612,90.612,0,0,0,14.18-6.08,86.084,86.084,0,0,0,12.54-8.18,81.757,81.757,0,0,0,10.67-10,77.9,77.9,0,0,0,8.55-11.58q-12.5,26.22-25,52.45a72.626,72.626,0,0,1-7.84,10.67,75.524,75.524,0,0,1-9.76,9.22A78.761,78.761,0,0,1,527.42,314,81.844,81.844,0,0,1,514.51,319.64Z" transform="translate(-0.684 -15.6)" fill="#bcdeda"/><path d="M481.9,327.37l17.77-49-.15.48a2.948,2.948,0,0,1-.1.5,4.427,4.427,0,0,1-.05.51,4.68,4.68,0,0,0,0,.53l-17.75,48.79a3.841,3.841,0,0,1,0-.48,3.909,3.909,0,0,1,.05-.48,3.553,3.553,0,0,1,.09-.45C481.8,327.66,481.85,327.51,481.9,327.37Z" transform="translate(-0.684 -15.6)" fill="#bcdeda"/><path d="M481.9,327.37l1.63-4.49.82-2.27L486,316l1.7-4.7.87-2.38,1.76-4.84,1.79-4.93.91-2.5,1.84-5.08,1.88-5.18,1-2.63,1.94-5.33c-.06.16-.1.31-.15.48a4.732,4.732,0,0,0-.1.49,5.08,5.08,0,0,1-.05.52,4.505,4.505,0,0,0,0,.52l-17.75,48.79a3.794,3.794,0,0,1,0-.48,3.575,3.575,0,0,1,.05-.47,3.429,3.429,0,0,1,.09-.46A3.238,3.238,0,0,1,481.9,327.37Z" transform="translate(-0.684 -15.6)" fill="#2d2931"/><path d="M39.69,332.86q-13.48-24.23-27-48.47v-1a6.7,6.7,0,0,1,.05-1l.06-1a4.858,4.858,0,0,1,.07-1l26.91,48.79-.06.91v1.83C39.72,332.23,39.69,332.56,39.69,332.86Z" transform="translate(-0.684 -15.6)" fill="#bcdeda"/><path d="M39.69,332.86v.57h0Q26.2,309.22,12.72,285v-.62q7.77,14,15.53,27.93l5.83,10.49L37,328.07l.7,1.26,1.34,2.4A6,6,0,0,1,39.69,332.86Z" transform="translate(-0.684 -15.6)" fill="#bcdeda"/><path d="M595.1,234.18l-26.25,52.45a81.477,81.477,0,0,1-12.67,18.42,86.728,86.728,0,0,1-17.48,14.69,92.192,92.192,0,0,1-21.45,10,98,98,0,0,1-24.53,4.45l18.91-48.35a108.211,108.211,0,0,0,27-4.85,100.487,100.487,0,0,0,23.55-10.9,93.879,93.879,0,0,0,19.14-16A87.7,87.7,0,0,0,595.1,234.18Z" transform="translate(-0.684 -16.6)" fill="#2d2931"/><path d="M14,335.06q-1.16-1.87-2.21-3.81c-.71-1.29-1.38-2.6-2-3.92s-1.25-2.66-1.83-4-1.12-2.72-1.63-4.1a89.169,89.169,0,0,1-5.62-28.9A94,94,0,0,1,1,280.42l28,48.79a84.16,84.16,0,0,0-.19,9.11,82.412,82.412,0,0,0,2.52,17.86A83.763,83.763,0,0,0,34,364.86c.48,1.27,1,2.53,1.51,3.77s1.1,2.47,1.69,3.68,1.21,2.42,1.86,3.6,1.33,2.35,2,3.5Z" transform="translate(-0.684 -15.6)" fill="#2d2931"/><path d="M44.41,360.79h0q-13.35-23-26.69-46h0c-.9-2.4-1.67-4.82-2.33-7.27s-1.19-4.91-1.61-7.4-.72-5-.9-7.5-.23-5.06-.17-7.6h0q13.47,24.21,27,48.42-.06,3.51.21,7a69.527,69.527,0,0,0,.86,6.9q.59,3.42,1.5,6.8C42.87,356.36,43.59,358.59,44.41,360.79Z" transform="translate(-0.684 -15.6)" fill="#bcdeda"/><path d="M168.88,367.05h-.09q-7-22.74-14-45.46h.11C159.07,335.24,164.68,353.42,168.88,367.05Z" transform="translate(-0.684 -15.6)" fill="#bcdeda"/><path d="M168.57,367.06a55.266,55.266,0,0,0-18.23,3.25,54.41,54.41,0,0,0-8.32,3.83,55.16,55.16,0,0,0-7.61,5.22q-8.81-22.17-17.6-44.35a60.24,60.24,0,0,1,17.61-9.86,61.7,61.7,0,0,1,9.82-2.6,63.582,63.582,0,0,1,10.28-.95c.53,1.74,1.25,4,1.78,5.78l1.85,6,1.87,6.05,1.86,6,1.81,5.86,1.74,5.62,1.63,5.28C167.51,363.65,168.11,365.6,168.57,367.06Z" transform="translate(-0.684 -15.6)" fill="#bcdeda"/><path d="M133.93,379.76l-17.65-44.31.13-.11.14-.11.13-.11.13-.11c.67,1.7,1.57,3.95,2.24,5.64l2.31,5.83c.71,1.78,1.64,4.14,2.35,5.91s1.63,4.11,2.32,5.87L128.3,364c.66,1.64,1.53,3.83,2.18,5.48l2,5.15c.57,1.43,1.32,3.33,1.89,4.75l-.12.1-.12.1-.12.1Z" transform="translate(-0.684 -15.6)" fill="#bcdeda"/><path d="M131.87,381.58c-1.21,1.12-2.37,2.29-3.46,3.5s-2.12,2.47-3.08,3.76a47.441,47.441,0,0,0-2.7,4c-.83,1.39-1.6,2.76-2.3,4.19q-2.13-4.78-4.27-9.55l-4.83-10.79-5.09-11.36-5-11.06c.78-1.55,1.64-3.07,2.56-4.56s1.93-2.93,3-4.34,2.21-2.77,3.42-4.09,2.49-2.6,3.83-3.82l.56-.51.57-.5.57-.49.58-.48c.5,1.24,1.16,2.9,1.65,4.14l1.72,4.32c.53,1.32,1.23,3.08,1.75,4.4l1.76,4.4c.51,1.3,1.2,3,1.72,4.32s1.16,2.91,1.65,4.16l1.57,3.93c.44,1.1,1,2.55,1.45,3.65l.52,1.31.55,1.38.57,1.42.57,1.44.57,1.44.56,1.4.54,1.34.5,1.26-.52.44-.52.45-.51.46Z" transform="translate(-0.684 -15.6)" fill="#bcdeda"/><path d="M131.87,381.58c-1.22,1.12-2.37,2.3-3.46,3.51s-2.12,2.46-3.09,3.76-1.86,2.62-2.7,4-1.6,2.76-2.3,4.19h0l-19.14-42.75q1.17-2.34,2.56-4.57t3-4.35c1.07-1.41,2.21-2.77,3.42-4.1s2.49-2.59,3.84-3.82a60.354,60.354,0,0,1,29.47-14.76,61.573,61.573,0,0,1,11.14-1.07l14,45.46a53.762,53.762,0,0,0-10.09,1,54.39,54.39,0,0,0-26.68,13.54Z" transform="translate(-0.684 -15.6)" fill="#2d2931"/><path d="M168.79,367.06h-.22q-7-22.72-14-45.46h.24c.54,1.73,1.25,4,1.79,5.78l1.84,6,1.87,6.06c.55,1.8,1.3,4.21,1.85,6s1.27,4.1,1.81,5.86l1.73,5.62c.49,1.58,1.15,3.7,1.63,5.28S168.34,365.59,168.79,367.06Z" transform="translate(-0.684 -15.6)" fill="#bcdeda"/><path d="M180.8,368.6c-1-.22-1.91-.41-2.88-.58s-1.95-.31-2.94-.42-2-.2-3-.26-2-.09-3-.09l-14-45.43c1.13,0,2.25,0,3.37.09s2.21.16,3.3.29,2.17.27,3.24.45,2.13.4,3.17.64l1.63,5.75c.5,1.79,1.18,4.18,1.68,6s1.2,4.23,1.71,6,1.18,4.2,1.69,6,1.16,4.1,1.65,5.85,1.11,3.92,1.58,5.6,1.05,3.69,1.49,5.27Z" transform="translate(-0.684 -15.6)" fill="#2d2931"/><path d="M204.41,381.14a49.428,49.428,0,0,0-16.23-10.46,51.174,51.174,0,0,0-9.37-2.71,54.257,54.257,0,0,0-9.93-.92l-14-45.45a59.844,59.844,0,0,1,10.94,1,57.067,57.067,0,0,1,10.32,2.95A54.721,54.721,0,0,1,194,337Q199.2,359,204.41,381.14Z" transform="translate(-0.684 -15.6)" fill="#bcdeda"/><path d="M204.43,381.16h0Q199.21,359,194,337h0Q199.21,359.07,204.43,381.16Z" transform="translate(-0.684 -15.6)" fill="#bcdeda"/><path d="M204.43,381.16Q199.23,359.07,194,337h0l.47.46.46.45.45.47.45.47q5.11,22,10.24,44c-.13-.14-.27-.28-.4-.43l-.42-.42-.41-.42-.43-.42h0Z" transform="translate(-0.684 -15.6)" fill="#bcdeda"/><path d="M206.26,383h0l-10.24-44h0Z" transform="translate(-0.684 -15.6)" fill="#bcdeda"/><path d="M206.26,383q-5.13-22-10.24-44l.67.73.66.75.65.76.63.77,10,43.77-.57-.71-.59-.69-.6-.69Z" transform="translate(-0.684 -15.6)" fill="#bcdeda"/><path d="M154.61,321.6a60.994,60.994,0,0,1,11.14,1,57.561,57.561,0,0,1,10.43,3,54.8,54.8,0,0,1,9.53,4.86,53.634,53.634,0,0,1,8.42,6.65c.4.39.8.78,1.19,1.18s.77.81,1.15,1.22.74.82,1.1,1.24.71.85,1.06,1.28l10,43.77c-.31-.4-.64-.79-1-1.17s-.66-.77-1-1.14-.69-.75-1-1.12a13.762,13.762,0,0,0-1.08-1.08,49.08,49.08,0,0,0-16.31-10.56,52,52,0,0,0-9.47-2.73,55.281,55.281,0,0,0-10.12-.92Z" transform="translate(-0.684 -15.6)" fill="#2d2931"/><path d="M181.93,368.88l-.28-.07-.28-.07-.28-.07-.29-.07Q174.41,346,168,323.29l.31.07.31.07.31.08.31.08c.35,1.23.81,2.89,1.16,4.13l1.2,4.3,1.23,4.38,1.23,4.39c.36,1.29.84,3,1.21,4.31s.81,2.91,1.16,4.15l1.1,3.94,1,3.66.4,1.43.42,1.51.44,1.56.44,1.58.44,1.57.43,1.53.41,1.47Z" transform="translate(-0.684 -15.6)" fill="#2d2931"/><path d="M49.8,372.1l-26.22-45q-.85-1.47-1.65-3c-.53-1-1-2-1.53-3S19.45,319,19,318s-.87-2.1-1.27-3.17h0q13.35,23,26.69,46,.55,1.47,1.17,2.91c.4,1,.83,1.91,1.28,2.85s.92,1.88,1.4,2.8S49.27,371.21,49.8,372.1Z" transform="translate(-0.684 -15.6)" fill="#bcdeda"/><path d="M49.79,372.09l-26.22-45q-.855-1.5-1.65-3c-.53-1-1-2-1.53-3.05S19.44,319,19,318s-.86-2.1-1.26-3.17a82.379,82.379,0,0,1-2.62-8.36,79.759,79.759,0,0,1-2.38-17.21,80.694,80.694,0,0,1,.22-8.78l26.91,48.79a78,78,0,0,0-.15,8.08,75.849,75.849,0,0,0,.71,8A72.5,72.5,0,0,0,42,353.11a71.178,71.178,0,0,0,2.43,7.68c.37,1,.75,1.95,1.16,2.91s.84,1.92,1.29,2.86.92,1.88,1.4,2.8S49.27,371.19,49.79,372.09Z" transform="translate(-0.684 -15.6)" fill="#2d2931"/><path d="M50.36,373.05l-.14-.23c0-.08-.1-.16-.14-.24s-.1-.16-.14-.24-.1-.16-.14-.24l-26.22-45,.15.26.15.26.15.26.16.25Q37.27,350.6,50.36,373.05Z" transform="translate(-0.684 -15.6)" fill="#bcdeda"/><path d="M119.78,395.86q-9.3-20.78-18.61-41.57h0L120.33,397h0C120.13,396.65,120,396.26,119.78,395.86Z" transform="translate(-0.684 -15.6)" fill="#bcdeda"/><path d="M120.3,397.07l-19.14-42.75h0l2.43,5.43c.76,1.69,1.77,3.94,2.52,5.63s1.79,4,2.55,5.7l2.53,5.65,2.47,5.51,2.37,5.28c.66,1.49,1.55,3.48,2.22,5s1.43,3.21,2,4.58h0Z" transform="translate(-0.684 -15.6)" fill="#2d2931"/><path d="M120.31,397h0q-9.57-21.36-19.15-42.73h0Z" transform="translate(-0.684 -15.6)" fill="#bcdeda"/><path d="M120.24,397.18a.167.167,0,0,1-.08.17l-.24.51-19.19-42.68.09-.18.09-.19.09-.18.09-.18,2.44,5.43c.75,1.69,1.76,3.94,2.52,5.62s1.78,4,2.55,5.7l2.53,5.65,2.47,5.51,2.36,5.28,2.23,5C118.8,394,119.62,395.81,120.24,397.18Z" transform="translate(-0.684 -15.6)" fill="#bcdeda"/><path d="M118.6,395.11l-17.92-39.82h0v-.08l19.19,42.68v.05h0C119.45,397,119,396.06,118.6,395.11Z" transform="translate(-0.684 -15.6)" fill="#bcdeda"/><path d="M120.3,397.07l-.11.22-.11.23-.11.23-.11.23h0q-9.58-21.33-19.19-42.67l.12-.25.12-.24.12-.25a2,2,0,0,1,.13-.25h0c.7,1.58,1.65,3.69,2.36,5.27l2.44,5.46c.74,1.66,1.73,3.87,2.48,5.53l2.46,5.5,2.4,5.36,2.3,5.14,2.17,4.84,2,4.47.13.28.06.15.07.16.07.15.07.15.07.15Z" transform="translate(-0.684 -15.6)" fill="#2d2931"/><path d="M119.87,398v.36q-9.6-21.33-19.21-42.64v-.38c.47,1,1.08,2.39,1.54,3.41l.78,1.74,1.59,3.53.8,1.78,1.61,3.58.81,1.79,1.6,3.57.8,1.77,1.58,3.51.77,1.73,1.12,2.49.35.77.69,1.54.35.77.68,1.51.33.75.66,1.46.33.72.63,1.41.3.68.6,1.31.07.17.16.34.08.18.16.37.08.18.17.37.08.19.17.36.08.18.15.34Z" transform="translate(-0.684 -15.6)" fill="#bcdeda"/><path d="M119.86,398v.35h0L100.49,355.7l.05-.1v-.29c.27.6.63,1.39.89,2l.94,2.08,1,2.14,1,2.17,1,2.14.94,2.08.89,2,.84,1.86c.44,1,1,2.26,1.45,3.23l1.52,3.38c.47,1,1.09,2.41,1.55,3.45l1.56,3.45,1.53,3.4,1.47,3.29c.42.93,1,2.18,1.41,3.12Z" transform="translate(-0.684 -15.6)" fill="#2d2931"/><path d="M119.71,398.31q-.39.85-.75,1.74c-.24.59-.47,1.17-.69,1.77s-.43,1.19-.62,1.79-.38,1.21-.55,1.82l-19.52-42c.19-.67.4-1.33.62-2s.45-1.31.69-2,.5-1.29.77-1.93.55-1.27.84-1.9q5,11.18,10.07,22.35c.75,1.65,1.74,3.85,2.48,5.5l2.37,5.27,2.23,4.95Z" transform="translate(-0.684 -15.6)" fill="#bcdeda"/><path d="M117.09,405.45q-9.77-21-19.52-42c.2-.66.4-1.32.62-2s.45-1.31.69-2,.5-1.29.77-1.93.55-1.27.84-1.9h0l2.44,5.42,2.53,5.61,2.56,5.68,2.54,5.64,2.48,5.49,2.37,5.27,2.23,4.95,2.06,4.57q-.39.87-.75,1.74t-.69,1.77c-.22.6-.42,1.2-.62,1.8S117.26,404.85,117.09,405.45Z" transform="translate(-0.684 -15.6)" fill="#2d2931"/><path d="M181.93,368.88l-12.69-45.29a56.1,56.1,0,0,1,14,5.61,54.274,54.274,0,0,1,11.67,8.9,52.219,52.219,0,0,1,8.73,11.64,50.682,50.682,0,0,1,5.18,13.81l9.1,42a47.341,47.341,0,0,0-4.72-12.66,48.212,48.212,0,0,0-7.95-10.67A49.618,49.618,0,0,0,194.64,374,50.289,50.289,0,0,0,181.93,368.88Z" transform="translate(-0.684 -15.6)" fill="#2d2931"/><path d="M115,401.14,97.54,363.58v-.13l2.48,5.33,2.57,5.53,2.6,5.59c.78,1.67,1.81,3.89,2.58,5.56s1.76,3.79,2.52,5.41l2.41,5.19,2.27,4.87c.62,1.35,1.46,3.15,2.09,4.5v.12Z" transform="translate(-0.684 -15.6)" fill="#bcdeda"/><path d="M117.05,405.58q-9.75-21-19.52-42v-.14h0c.75,1.6,1.74,3.74,2.48,5.34l2.57,5.53,2.6,5.59,2.58,5.55c.76,1.63,1.77,3.79,2.52,5.42l2.41,5.18L115,401c.63,1.35,1.46,3.15,2.09,4.49v.13Z" transform="translate(-0.684 -15.6)" fill="#2d2931"/><path d="M117.06,405.55a.442.442,0,0,1-.08.31l-.09.31a.429.429,0,0,1-.08.3c-.08.1,0,.21-.07.31Q107,385.84,97.17,364.92l.09-.34.09-.33a1.182,1.182,0,0,1,.1-.34l.09-.33,1.7,3.66.88,1.89,1.8,3.86.9,1.95,1.81,3.89.9,1.92c.52,1.13,1.22,2.63,1.75,3.76l.84,1.83,1.63,3.49.77,1.65c.28.62.67,1.44,1,2.06l.23.48.45,1,.23.5.47,1,.24.51.48,1,.24.51.48,1,.24.52.48,1,.13.29.27.58.14.29.26.57.14.28.26.57.13.27.37.81.24.51Z" transform="translate(-0.684 -15.6)" fill="#bcdeda"/><path d="M116.74,406.78a2.677,2.677,0,0,0-.07.27.408.408,0,0,1-.07.28c-.07.09,0,.19-.07.28l-.06.28-19.6-41.76a.455.455,0,0,1,.08-.31c.08-.1,0-.2.07-.3s0-.2.08-.3.05-.2.07-.3c.75,1.59,1.74,3.72,2.49,5.32s1.8,3.86,2.58,5.51l2.6,5.58,2.59,5.53c.76,1.62,1.77,3.78,2.52,5.4l2.42,5.17,2.27,4.87Z" transform="translate(-0.684 -15.6)" fill="#bcdeda"/><path d="M117.05,405.58l-.15.58c-.06.19-.11.39-.15.58l-.15.59a2.449,2.449,0,0,1-.14.58L96.87,366.15l.15-.64c.06-.21.11-.42.16-.63l.18-.64a2.46,2.46,0,0,1,.17-.63h0q8.75,18.78,17.47,37.56l.24.51.26.55.26.57.27.57.27.58.13.29.13.28.13.27.25.54A.432.432,0,0,1,117.05,405.58Z" transform="translate(-0.684 -15.6)" fill="#2d2931"/><path d="M116.47,407.89V408q-9.8-20.86-19.6-41.75v-.13l2.5,5.31,2.57,5.49,2.62,5.57,2.59,5.52c.76,1.62,1.77,3.77,2.52,5.39l1.23,2.6,1.19,2.54,1.16,2.47,2.19,4.67a8.4,8.4,0,0,1,1.03,2.21Z" transform="translate(-0.684 -15.6)" fill="#bcdeda"/><path d="M113.86,402.58q-8.52-18.12-17-36.26h0c.75,1.6,1.75,3.72,2.49,5.31s1.81,3.85,2.58,5.5,1.83,3.89,2.61,5.56l2.6,5.52c.76,1.62,1.77,3.77,2.52,5.39s1.7,3.61,2.42,5.15l2.28,4.85,2.1,4.47h0Q115.14,405.33,113.86,402.58Z" transform="translate(-0.684 -15.6)" fill="#bcdeda"/><path d="M116.42,408.09q-9.8-20.88-19.6-41.74v-.2c.74,1.6,1.74,3.72,2.49,5.31s1.8,3.85,2.58,5.5l2.61,5.56,2.59,5.53,2.53,5.38c.72,1.55,1.69,3.61,2.42,5.16l2.27,4.85,2.1,4.47v.18Z" transform="translate(-0.684 -15.6)" fill="#2d2931"/><path d="M23.57,327.09a79.769,79.769,0,0,0,5.15,7.77,83.742,83.742,0,0,0,6,7.18,86.5,86.5,0,0,0,14.6,12.33A89.478,89.478,0,0,0,60,360.51a91.922,91.922,0,0,0,11.44,4.65,96.5,96.5,0,0,0,12.09,3.11,99.04,99.04,0,0,0,12.59,1.53l19.68,41.45a88.009,88.009,0,0,1-11.41-1.4,85.1,85.1,0,0,1-11-2.85A84.037,84.037,0,0,1,83,402.74a82,82,0,0,1-16.71-10.95,77.559,77.559,0,0,1-6.29-6,75.1,75.1,0,0,1-5.52-6.58,76.468,76.468,0,0,1-4.72-7.13C41.92,358.59,31.43,340.59,23.57,327.09Z" transform="translate(-0.684 -15.6)" fill="#2d2931"/><path d="M50.36,373.05,24.19,328.13A83,83,0,0,0,41.9,348.76a85.02,85.02,0,0,0,7.46,5.61A89.5,89.5,0,0,0,60,360.51a91.922,91.922,0,0,0,11.44,4.65,96.507,96.507,0,0,0,12.09,3.11,99.05,99.05,0,0,0,12.59,1.53l19.68,41.45a88,88,0,0,1-11.41-1.4,86.288,86.288,0,0,1-11-2.85A83.29,83.29,0,0,1,83,402.74,81.377,81.377,0,0,1,66.54,392a77.7,77.7,0,0,1-6.12-5.76A75.471,75.471,0,0,1,55,379.89a76.924,76.924,0,0,1-4.64-6.84Z" transform="translate(-0.684 -15.6)" fill="#bcdeda"/><path d="M116.43,408.06c-.06.27-.12.53-.17.79s-.11.53-.16.8l-.15.8a5.791,5.791,0,0,1-.13.8L96.14,369.8l.15-.88a4.462,4.462,0,0,1,.17-.87c.06-.29.11-.58.18-.87s.12-.57.19-.86q6.36,13.56,12.73,27.11l1.13,2.42.56,1.18,1.08,2.3.52,1.11,1,2.14.15.32.31.66.16.35.33.7.17.36.33.72.17.36.33.7.16.34.31.66Z" transform="translate(-0.684 -15.6)" fill="#bcdeda"/><path d="M116.42,408.09c-.06.26-.11.52-.17.78l-.15.79-.15.79a5.556,5.556,0,0,1-.13.8L96.14,369.8l.15-.87a5.014,5.014,0,0,1,.16-.86l.18-.87c.06-.28.13-.57.19-.85h0q6.32,13.42,12.62,26.87l.84,1.78.88,1.88.91,1.94.92,2,.91,1.93.45,1,.86,1.84.83,1.75a3.444,3.444,0,0,1,.38.75Z" transform="translate(-0.684 -15.6)" fill="#2d2931"/><path d="M115.27,416.74l-.06,1.32V422L95.27,381.53V380.1l.06-1.43a11.243,11.243,0,0,1,.06-1.44c.06-.44,0-1,.07-1.43a54,54,0,0,1,5.63-21.17,58.091,58.091,0,0,1,13.06-17.14,60.64,60.64,0,0,1,40.66-15.67h.07c.54,1.73,1.25,4,1.78,5.77l.92,3,1.86,6,1.86,6,1.83,5.95.9,2.91,1.73,5.61.83,2.69.8,2.59c.45,1.46,1.63,3.35,1.5,4.87h-.06a54.2,54.2,0,0,0-20.078,3.853A54.841,54.841,0,0,0,132,381.64a53.059,53.059,0,0,0-11.77,15.71,49.711,49.711,0,0,0-4.96,19.39Z" transform="translate(-0.684 -15.6)" fill="#2d2931"/><path d="M41.13,379.41,14,335.06a91.36,91.36,0,0,0,5.66,8.21,92.411,92.411,0,0,0,6.57,7.6,94.083,94.083,0,0,0,7.43,6.93,95.937,95.937,0,0,0,8.21,6.2A100.463,100.463,0,0,0,54,371a104.679,104.679,0,0,0,26.87,8.82,110.281,110.281,0,0,0,14.38,1.69L115.09,422a100.289,100.289,0,0,1-13-1.56,94.633,94.633,0,0,1-24.39-8.07,92.926,92.926,0,0,1-11-6.42,90.209,90.209,0,0,1-7.51-5.69,86.776,86.776,0,0,1-12.78-13.33,83.694,83.694,0,0,1-5.28-7.52Z" transform="translate(-0.684 -16.6)" fill="#2d2931"/><path d="M120.31,481.89A193.319,193.319,0,0,1,95.27,381.54c0-.47,0-.95,0-1.43l.06-1.43.06-1.44a9.446,9.446,0,0,1,.07-1.43,54,54,0,0,1,5.63-21.17,58.091,58.091,0,0,1,13.06-17.14A61.07,61.07,0,0,1,132.72,326a60.437,60.437,0,0,1,22.13-4.19,58.09,58.09,0,0,1,19,3.13,55.061,55.061,0,0,1,16.05,8.68,53,53,0,0,1,12,13.21,51,51,0,0,1,6.89,16.69l9.1,42a47.18,47.18,0,0,0-6.28-15.3,48.428,48.428,0,0,0-11-12.11,50.35,50.35,0,0,0-14.58-8,52.311,52.311,0,0,0-17.21-2.87,54.2,54.2,0,0,0-20.078,3.853A54.808,54.808,0,0,0,132,381.63a53.23,53.23,0,0,0-11.77,15.72,49.711,49.711,0,0,0-5,19.39l-.06,1.32v3.93a178.269,178.269,0,0,0,12.63,69.79,182.154,182.154,0,0,0,10.45,21.86Z" transform="translate(-0.684 -15.6)" fill="#2d2931"/><path d="M206.8,406.84a37.34,37.34,0,0,0-5.1-11.65,38.55,38.55,0,0,0-8.59-9.21,39.371,39.371,0,0,0-11.32-6.05,41.151,41.151,0,0,0-13.29-2.18l-14.1-44.49a45.72,45.72,0,0,1,14.65,2.37,43.61,43.61,0,0,1,12.46,6.6,41.87,41.87,0,0,1,9.44,10A40,40,0,0,1,196.54,365Z" transform="translate(-0.684 -15.6)" fill="#bcdeda"/><path d="M168.41,38.35a81.47,81.47,0,0,1,9.75,6.87,77.517,77.517,0,0,1,8.45,8,75,75,0,0,1,7,9.1,72.078,72.078,0,0,1,5.52,10.05,69.527,69.527,0,0,1,2.87,7.4,68.6,68.6,0,0,1,2,7.58,69.484,69.484,0,0,1,1.09,7.77,72.277,72.277,0,0,1,.2,7.94l-6.65,239c-.35-.43-.7-.86-1.06-1.28s-.73-.84-1.1-1.25-.76-.81-1.15-1.21-.79-.79-1.19-1.18a54,54,0,0,0-8.41-6.65,55.23,55.23,0,0,0-9.5-4.86,57.533,57.533,0,0,0-10.36-3,59.6,59.6,0,0,0-11-1,63.012,63.012,0,0,0-11.29,1.07,61.321,61.321,0,0,0-10.71,3.06,59.656,59.656,0,0,0-9.93,4.94,60.649,60.649,0,0,0-15.5,13.78,57.942,57.942,0,0,0-5.22,7.83,55.641,55.641,0,0,0-3.79,8.5,53.469,53.469,0,0,0-2.29,9,99.067,99.067,0,0,1-12.59-1.53,96.523,96.523,0,0,1-12.09-3.11A91.937,91.937,0,0,1,60,360.51a89.486,89.486,0,0,1-10.66-6.14A86.627,86.627,0,0,1,39,346.25a82.13,82.13,0,0,1-8.79-9.41,81.3,81.3,0,0,1-7.14-10.54,80,80,0,0,1-5.38-11.52,82.376,82.376,0,0,1-2.62-8.36,79.759,79.759,0,0,1-2.38-17.21,80.692,80.692,0,0,1,.22-8.78L19.56,195h91.58a6.48,6.48,0,0,0,2.3-.42,6.339,6.339,0,0,0,1.91-1.14,5.72,5.72,0,0,0,1.34-1.69,5.12,5.12,0,0,0,.57-2.08L125.63,25.5A97.6,97.6,0,0,1,137,26.74a93.792,93.792,0,0,1,11,2.6,89.106,89.106,0,0,1,10.5,3.88,86.1,86.1,0,0,1,9.91,5.13Z" transform="translate(-0.684 -15.6)" fill="#bcdeda"/><path d="M490.92,411.39q9.57-20.7,19.12-41.4h0Z" transform="translate(-0.684 -15.6)" fill="#2d2931"/><path d="M490.92,411.39a5.85,5.85,0,0,0-1.58.22,5.513,5.513,0,0,0-1.37.63,4.82,4.82,0,0,0-1.11.95,5,5,0,0,0-.8,1.23l18.65-41.16a5.707,5.707,0,0,1,.87-1.34,5.934,5.934,0,0,1,1.23-1.05,5.7,5.7,0,0,1,1.51-.67,6.127,6.127,0,0,1,1.73-.24h0c-1.25,2.65-2.46,5.32-3.69,8l-2.53,5.49q-1.9,4.13-3.8,8.24l-3.66,7.92-2.3,5L493,407c-.61,1.33-1.43,3.1-2.05,4.43Z" transform="translate(-0.684 -15.6)" fill="#2d2931"/><path d="M504.71,373.27a5.47,5.47,0,0,1,.87-1.35,5.385,5.385,0,0,1,1.23-1,5.291,5.291,0,0,1,1.51-.68,6.182,6.182,0,0,1,1.73-.24l-19.13,41.43a5.85,5.85,0,0,0-1.58.22,5.513,5.513,0,0,0-1.37.63,5.371,5.371,0,0,0-1.12.95,5.16,5.16,0,0,0-.79,1.23C491.66,402.08,499.12,385.61,504.71,373.27Z" transform="translate(-0.684 -15.6)" fill="#2d2931"/><path d="M398.46,411.39a5.478,5.478,0,0,0-1.87.32,5.378,5.378,0,0,0-1.58.86,5.457,5.457,0,0,0-1.18,1.31,5,5,0,0,0-.68,1.64l9-41.06a5.666,5.666,0,0,1,.75-1.79,5.57,5.57,0,0,1,1.31-1.43,6,6,0,0,1,1.74-.94A6.309,6.309,0,0,1,408,370Z" transform="translate(-0.684 -15.6)" fill="#2d2931"/><path d="M208.8,363.53l9.1,42c.19.88.36,1.76.5,2.66s.26,1.79.35,2.7.15,1.83.19,2.76.05,1.86,0,2.8v5.12a50.185,50.185,0,0,0,.36,5.06c.17,1.67.39,3.33.65,5s.59,3.28,1,4.89l-8.86-39.11q-.6-2.66-1-5.35c-.3-1.79-.53-3.61-.72-5.44s-.3-3.66-.37-5.52-.09-3.72,0-5.59v-3.06c0-1-.11-2-.21-3s-.22-2-.38-3S209,364.49,208.8,363.53Z" transform="translate(-0.684 -15.6)" fill="#2d2931"/><path d="M219,416.35l-9-41v-3c0-1-.11-2-.2-3s-.23-2-.38-2.93-.33-1.93-.53-2.87l9.1,42c.19.87.35,1.75.49,2.64s.25,1.78.34,2.68.16,1.82.2,2.73S219,415.42,219,416.35Z" transform="translate(-0.684 -15.6)" fill="#2d2931"/><path d="M496.73,416.75a5.428,5.428,0,0,0-.54-2.08,5.909,5.909,0,0,0-1.27-1.71,6,6,0,0,0-1.82-1.14,5.692,5.692,0,0,0-2.18-.43L510.06,370a6.589,6.589,0,0,1,4.42,1.71,6.4,6.4,0,0,1,1.41,1.86,5.711,5.711,0,0,1,.6,2.28Z" transform="translate(-0.684 -15.6)" fill="#2d2931"/><path d="M473.86,513.59q3.92-7,7.19-14.21t5.86-14.65q2.59-7.43,4.53-15.05t3.2-15.41q.75-4.66,1.26-9.36c.33-3.13.59-6.26.76-9.39s.27-6.27.28-9.4-.06-6.25-.21-9.37a5.522,5.522,0,0,0-.54-2.09,5.874,5.874,0,0,0-1.27-1.7,6.173,6.173,0,0,0-1.82-1.15,5.909,5.909,0,0,0-2.18-.42L510.05,370a6.661,6.661,0,0,1,2.41.45,6.8,6.8,0,0,1,2,1.26,6.405,6.405,0,0,1,1.41,1.86,5.893,5.893,0,0,1,.61,2.28q.27,5.1.28,10.23c0,3.42-.08,6.85-.25,10.27s-.44,6.85-.8,10.27-.8,6.84-1.34,10.24q-1.37,8.5-3.37,16.83a147.663,147.663,0,0,1-5,16.49q-2.83,8.16-6.4,16.07t-7.89,15.59Z" transform="translate(-0.684 -15.6)" fill="#2d2931"/><path d="M485.62,416.75l18.62-40.94a44.649,44.649,0,0,1-.05,5.05,39.252,39.252,0,0,1-.66,4.9,38.694,38.694,0,0,1-1.22,4.71,39.181,39.181,0,0,1-1.77,4.47l-18.35,39.32a37,37,0,0,0,3.36-12.88A37.492,37.492,0,0,0,485.62,416.75Z" transform="translate(-0.684 -15.6)" fill="#bcdeda"/><path d="M500.53,395l-18.35,39.32a37.182,37.182,0,0,0,1.62-4.1,38.445,38.445,0,0,0,1.14-4.31,37.024,37.024,0,0,0,.61-4.49,37.655,37.655,0,0,0,.07-4.64,4.1,4.1,0,0,1,0-.61,3.777,3.777,0,0,1,.08-.6,3.387,3.387,0,0,1,.14-.57,5.173,5.173,0,0,1,.21-.55L504.7,373.3a6.04,6.04,0,0,0-.23.59,6.278,6.278,0,0,0-.15.62c0,.22-.07.43-.09.65a5.138,5.138,0,0,0,0,.68,44.827,44.827,0,0,1-.05,5.06,40.255,40.255,0,0,1-3.66,14.1Z" transform="translate(-0.684 -15.6)" fill="#2d2931"/><path d="M486.06,414.42l18.65-41.16c-.08.2-.16.39-.23.6a6.242,6.242,0,0,0-.15.62c0,.21-.07.43-.09.65s0,.45,0,.68l-18.62,40.94a4.1,4.1,0,0,1,0-.61,3.777,3.777,0,0,1,.08-.6,3.391,3.391,0,0,1,.14-.57A5.18,5.18,0,0,1,486.06,414.42Z" transform="translate(-0.684 -15.6)" fill="#2d2931"/><path d="M402.17,374.47a5.641,5.641,0,0,1,2.06-3.23,6,6,0,0,1,1.74-.94,6.6,6.6,0,0,1,6.4,1.41,6.1,6.1,0,0,1,1.37,1.86,5.658,5.658,0,0,1,.54,2.28,42.172,42.172,0,0,0,4,16.8,45.3,45.3,0,0,0,10.12,13.84A47.63,47.63,0,0,0,461,419.31a45.708,45.708,0,0,0,12.77-1.79,43.682,43.682,0,0,0,11.19-5,42.079,42.079,0,0,0,9.09-7.69,40.894,40.894,0,0,0,6.49-9.85L482.19,434.3a37.552,37.552,0,0,1-5.92,9,38.263,38.263,0,0,1-8.26,7,39.5,39.5,0,0,1-10.15,4.58,41.4,41.4,0,0,1-11.56,1.63,42.388,42.388,0,0,1-16.1-3.16,43,43,0,0,1-13.32-8.59,41.222,41.222,0,0,1-9.12-12.66,38.82,38.82,0,0,1-3.61-15.38,5.288,5.288,0,0,0-.49-2.09,5.557,5.557,0,0,0-1.23-1.7,5.74,5.74,0,0,0-4-1.57,5.482,5.482,0,0,0-1.87.32,5.381,5.381,0,0,0-1.58.86,5.262,5.262,0,0,0-1.18,1.31,5,5,0,0,0-.68,1.65C395.85,403.21,399.47,386.79,402.17,374.47Z" transform="translate(-0.684 -15.6)" fill="#2d2931"/><path d="M399.9,397.48,391,436.59c.36-1.6.68-3.22.94-4.85s.49-3.27.65-4.92.29-3.32.35-5,.08-3.37,0-5.07v-.31a2.983,2.983,0,0,1,0-.31v-.3a2.628,2.628,0,0,1,.06-.3l9-41.06-.06.33v.66a1.984,1.984,0,0,0,0,.35v5.53c0,1.83-.19,3.66-.37,5.46s-.42,3.61-.71,5.39S400.3,395.73,399.9,397.48Z" transform="translate(-0.684 -15.6)" fill="#2d2931"/><path d="M402.05,375.81l-9,40.89Q397.54,396.26,402.05,375.81Z" transform="translate(-0.684 -15.6)" fill="#2d2931"/><path d="M397.32,397.25,393,416.75a1.613,1.613,0,0,1,0-.31,3,3,0,0,1,0-.31,2.918,2.918,0,0,1,0-.31,1.593,1.593,0,0,1,.06-.3l9-41.06-.06.33v.67a2.007,2.007,0,0,0,0,.35Q399.68,386.54,397.32,397.25Z" transform="translate(-0.684 -15.6)" fill="#2d2931"/><path d="M404.14,416.75a5.291,5.291,0,0,0-.49-2.09,5.562,5.562,0,0,0-1.23-1.7,5.74,5.74,0,0,0-4-1.57L408,370a6.32,6.32,0,0,1,4.37,1.71,6.1,6.1,0,0,1,1.37,1.86,5.66,5.66,0,0,1,.54,2.28Z" transform="translate(-0.684 -15.6)" fill="#2d2931"/><path d="M346.74,416.75,351,375.81v2.38a6.791,6.791,0,0,1-.07,1.19c-.07.4-.07.78-.11,1.17l-4.2,40.54c0-.35.07-.71.09-1.07s.05-.72.07-1.09,0-.72,0-1.09S346.74,417.12,346.74,416.75Z" transform="translate(-0.684 -15.6)" fill="#bcdeda"/><path d="M350.74,380.57l-4.2,40.54.09-1.08c0-.36.05-.72.07-1.08s0-.73,0-1.1v-1.1l4.3-40.94v2.38a6.791,6.791,0,0,1-.07,1.19C350.86,379.77,350.78,380.18,350.74,380.57Z" transform="translate(-0.684 -15.6)" fill="#2d2931"/><path d="M265.46,421.11l-4.2-40.54c0-.39-.08-.79-.11-1.18s0-.79-.07-1.19a6.761,6.761,0,0,1,0-1.19v-1.2l4.22,40.94v2.2a5.55,5.55,0,0,0,.07,1.08A9.833,9.833,0,0,1,265.46,421.11Z" transform="translate(-0.684 -15.6)" fill="#2d2931"/><path d="M265.47,421.15l-4.21-40.54c0-.39-.08-.79-.11-1.19a11.856,11.856,0,0,0-.07-1.19,6.985,6.985,0,0,1,0-1.21v-1.21l4.22,40.94v2.22a5.649,5.649,0,0,0,.07,1.09C265.44,420.42,265.43,420.79,265.47,421.15Z" transform="translate(-0.684 -15.6)" fill="#bcdeda"/><path d="M346.54,421.1v.25l4.2-40.52v-.27Z" transform="translate(-0.684 -15.6)" fill="#bcdeda"/><path d="M175,30.26A94.11,94.11,0,0,1,186,38a88.643,88.643,0,0,1,9.53,9,85.732,85.732,0,0,1,8,10.22A80.782,80.782,0,0,1,213,76.82a79.058,79.058,0,0,1,2.25,8.55,78.26,78.26,0,0,1,1.52,17.71L210,375.37a51,51,0,0,0-4.06-21,52,52,0,0,0-11.73-17A54.64,54.64,0,0,0,176.58,326a57.94,57.94,0,0,0-21.73-4.16,60.64,60.64,0,0,0-40.66,15.67,58.089,58.089,0,0,0-13.06,17.14A54,54,0,0,0,95.5,375.8a9.786,9.786,0,0,1-.07,1.43,11.885,11.885,0,0,0-.06,1.44l-.06,1.43v1.43a110.265,110.265,0,0,1-14.38-1.69A104.679,104.679,0,0,1,54,371a100.476,100.476,0,0,1-12.15-7,98,98,0,0,1-11.64-9.19,94.547,94.547,0,0,1-9.89-10.65A90.06,90.06,0,0,1,1.49,300.12a88.864,88.864,0,0,1-.78-9.79A94,94,0,0,1,1,280.42l7.31-90.8a5.25,5.25,0,0,1,.62-2.06,5.93,5.93,0,0,1,1.39-1.69,6.58,6.58,0,0,1,4.24-1.56h91.32l8.87-163.85a4.5,4.5,0,0,1,.54-1.88A5.22,5.22,0,0,1,116.56,17a6,6,0,0,1,1.82-1,6.53,6.53,0,0,1,2.18-.38,111.771,111.771,0,0,1,14.6.94,107,107,0,0,1,14,2.78,102.539,102.539,0,0,1,13.32,4.58A98.528,98.528,0,0,1,175,30.26ZM198.63,342l6.65-238.95a72.274,72.274,0,0,0-.2-7.94A69.487,69.487,0,0,0,204,87.35a68.6,68.6,0,0,0-2-7.58,71.675,71.675,0,0,0-2.83-7.37,73.191,73.191,0,0,0-5.53-10.05,75,75,0,0,0-7-9.1,77.524,77.524,0,0,0-8.45-8,81.468,81.468,0,0,0-9.75-6.87,86.1,86.1,0,0,0-9.86-5.13,89.111,89.111,0,0,0-10.5-3.88,93.79,93.79,0,0,0-11-2.6,97.6,97.6,0,0,0-11.41-1.29l-8.38,164.17a5,5,0,0,1-.56,2.08,5.72,5.72,0,0,1-1.34,1.69,6.339,6.339,0,0,1-1.91,1.14,6.479,6.479,0,0,1-2.3.42H19.56L13,280.43a80.691,80.691,0,0,0-.22,8.78,79.76,79.76,0,0,0,2.38,17.21,82.386,82.386,0,0,0,2.62,8.36,80,80,0,0,0,5.38,11.52,81.3,81.3,0,0,0,7.14,10.54,82.131,82.131,0,0,0,8.7,9.41,86.619,86.619,0,0,0,10.32,8.12A89.5,89.5,0,0,0,60,360.51a91.925,91.925,0,0,0,11.44,4.65,96.513,96.513,0,0,0,12.09,3.11,99.062,99.062,0,0,0,12.59,1.53,53.469,53.469,0,0,1,2.29-9,56.071,56.071,0,0,1,3.79-8.5,57.943,57.943,0,0,1,5.22-7.83,60.164,60.164,0,0,1,6.56-7,60.355,60.355,0,0,1,29.47-14.76,60.18,60.18,0,0,1,22.28-.06,57.56,57.56,0,0,1,10.43,3,54.8,54.8,0,0,1,9.53,4.86,53.641,53.641,0,0,1,8.42,6.65c.4.39.8.78,1.19,1.18s.77.81,1.15,1.22.74.82,1.1,1.24.71.85,1.06,1.28" transform="translate(-0.684 -15.6)" fill="#2d2931"/><path d="M357.43,423.8c.07-.57.14-1.15.2-1.74s.1-1.16.13-1.75.06-1.18.08-1.77,0-1.19,0-1.79l5.38-40.94v1.95a15.516,15.516,0,0,1-.08,1.93c-.08.64-.08,1.28-.14,1.92s-.14,1.27-.22,1.9Z" transform="translate(-0.684 -15.6)" fill="#2d2931"/><path d="M249.23,383.51c-.08-.63-.16-1.26-.22-1.9s-.11-1.28-.15-1.92-.06-1.29-.07-1.93,0-1.3,0-1.95l5.37,40.94v1.79a13.031,13.031,0,0,0,.08,1.77c.08.59.08,1.17.13,1.75s.12,1.17.2,1.74Z" transform="translate(-0.684 -15.6)" fill="#2d2931"/><path d="M126.38,416.75A166.322,166.322,0,0,0,142,495.8h0l-8.26-15.91-9.12-17.57a183.992,183.992,0,0,1-8.22-20.89A182,182,0,0,1,107.94,398a184,184,0,0,1-.18-22.16,42.3,42.3,0,0,1,4.38-16.66,45.41,45.41,0,0,1,10.25-13.51,47.6,47.6,0,0,1,32-12.38l14.1,44.49a42.76,42.76,0,0,0-29,11.36,41.579,41.579,0,0,0-9.24,12.38A39,39,0,0,0,126.38,416.75Z" transform="translate(-0.684 -15.6)" fill="#bcdeda"/><path d="M196.54,365l10.26,41.85a37.341,37.341,0,0,0-5.1-11.65,38.551,38.551,0,0,0-8.59-9.21,39.372,39.372,0,0,0-11.32-6.05,41.151,41.151,0,0,0-13.29-2.18,42.707,42.707,0,0,0-29,11.356A41.582,41.582,0,0,0,130.26,401.5a39,39,0,0,0-3.89,15.26,169.439,169.439,0,0,0,.4,22.09,166.5,166.5,0,0,0,3.28,21.79,168.408,168.408,0,0,0,15.16,41.8,6.221,6.221,0,0,1-.78-1.49q-3.66-7.05-7.33-14.1-4.47-8.62-9-17.25a184.913,184.913,0,0,1-9.86-22.5,181.9,181.9,0,0,1-10.53-71.28,42.3,42.3,0,0,1,4.38-16.66,45.409,45.409,0,0,1,10.25-13.51,47.6,47.6,0,0,1,32-12.38,45.721,45.721,0,0,1,14.65,2.37,43.61,43.61,0,0,1,12.46,6.6,41.73,41.73,0,0,1,9.44,10A40,40,0,0,1,196.54,365Z" transform="translate(-0.684 -15.6)" fill="#2d2931"/><path d="M196.54,365l10.26,41.85c.19.79.36,1.59.5,2.4s.26,1.63.35,2.46.15,1.66.19,2.5,0,1.69,0,2.55c-.06,2.17,0,4.33.06,6.46s.27,4.27.51,6.37.55,4.2.94,6.26.83,4.12,1.35,6.14l-9.94-38.6c-.57-2.21-1.07-4.45-1.48-6.71s-.76-4.54-1-6.84-.44-4.62-.54-7-.12-4.69-.05-7.06v-2.79a24.7,24.7,0,0,0-.2-2.73c-.1-.9-.22-1.8-.38-2.68S196.75,365.85,196.54,365Z" transform="translate(-0.684 -15.6)" fill="#bcdeda"/><path d="M200.78,403.38c-.57-2.21-1.07-4.45-1.48-6.71s-.76-4.54-1-6.84-.44-4.62-.54-7-.12-4.69-.05-7.06v-2.79a24.709,24.709,0,0,0-.2-2.73c-.1-.9-.22-1.8-.38-2.68s-.34-1.76-.55-2.62l10.26,41.85c.19.79.36,1.59.5,2.4s.26,1.63.35,2.46.15,1.66.19,2.5,0,1.69,0,2.55c-.06,2.17,0,4.33.06,6.46s.27,4.27.51,6.37.55,4.2.94,6.26.83,4.12,1.35,6.14Z" transform="translate(-0.684 -15.6)" fill="#2d2931"/><path d="M469.48,449.35l.13-.3.15-.33.15-.33.16-.35.15-.34.15-.33.14-.32.14-.3,1.71-3.8,1.86-4.11c.59-1.32,1.38-3.06,2-4.37s1.44-3.19,2.05-4.56,1.48-3.27,2.11-4.67l2.12-4.7,2.09-4.63c.6-1.34,1.41-3.13,2-4.47a41.989,41.989,0,0,0,4.3-3.43,40.251,40.251,0,0,0,3.8-3.93,39.512,39.512,0,0,0,3.24-4.37,42.4,42.4,0,0,0,2.62-4.77L482.2,434.26a35.5,35.5,0,0,1-2.4,4.36,37.4,37.4,0,0,1-2.94,4,38.448,38.448,0,0,1-7.37,6.73Z" transform="translate(-0.684 -15.6)" fill="#bcdeda"/><path d="M469.48,449.35h0l1.83-4.06,2-4.4c.63-1.4,1.48-3.27,2.11-4.68l2.21-4.89,2.26-5c.68-1.52,1.59-3.54,2.28-5s1.57-3.5,2.25-5l2.17-4.82h.05Z" transform="translate(-0.684 -15.6)" fill="#bcdeda"/><path d="M422.67,449.4a42.329,42.329,0,0,1-7.45-6.27,41.556,41.556,0,0,1-5.79-7.74,39.81,39.81,0,0,1-3.79-8.9,38.833,38.833,0,0,1-1.5-9.74l10.17-40.94A42.316,42.316,0,0,0,416,386.45a43.244,43.244,0,0,0,4.21,9.72,45.793,45.793,0,0,0,6.41,8.47,47.442,47.442,0,0,0,8.25,6.86Z" transform="translate(-0.684 -15.6)" fill="#bcdeda"/><path d="M466.63,451.17l.65-1.47.7-1.57.73-1.64.75-1.69.76-1.7.75-1.68.72-1.63.7-1.56q2.67-6,5.35-12l1.45-3.27,1.46-3.27,1.42-3.19,1.36-3.06.8-.47.78-.48.77-.5.75-.51q-8.55,18.94-17.09,37.91l-.69.47-.7.45-.71.44Z" transform="translate(-0.684 -15.6)" fill="#bcdeda"/><path d="M466.63,451.17l-.16.08-.15.09-.16.09-.15.09,1.79-4,1.94-4.38,2.07-4.65,2.16-4.86,2.22-5,2.23-5,2.2-5,2.14-4.8.17-.1.17-.09.17-.1.16-.09Z" transform="translate(-0.684 -15.6)" fill="#bcdeda"/><path d="M466,451.52a40.269,40.269,0,0,1-19.67,5.02l1.57-4,1.71-4.32,1.81-4.6,1.9-4.8,1.95-4.92c.58-1.49,1.37-3.48,2-5l1.93-4.9c.57-1.42,1.32-3.32,1.88-4.74a46.886,46.886,0,0,0,5.85-.37,48.356,48.356,0,0,0,5.61-1.07,44.425,44.425,0,0,0,10.25-4.06Q474.38,432.67,466,451.52Z" transform="translate(-0.684 -15.6)" fill="#bcdeda"/><path d="M446.29,456.54a42.313,42.313,0,0,1-6.41-.48,42.665,42.665,0,0,1-17.21-6.66l1.3-4,1.42-4.4,1.51-4.68,1.57-4.89,1.61-5,1.63-5.06,1.61-5,1.55-4.82a47.557,47.557,0,0,0,19.04,7.28,47.3,47.3,0,0,0,7.08.53h.06q-7.37,18.62-14.71,37.23h0Z" transform="translate(-0.684 -15.6)" fill="#bcdeda"/><path d="M362.77,383.51l-5.34,40.29a48.549,48.549,0,0,1-5.66,17.13,50.691,50.691,0,0,1-11.31,13.9,52.229,52.229,0,0,1-15.7,9.31,53.629,53.629,0,0,1-37.53,0,52.3,52.3,0,0,1-15.69-9.31,50.692,50.692,0,0,1-11.31-13.9,48.553,48.553,0,0,1-5.66-17.13l-5.34-40.29a52.65,52.65,0,0,0,6.22,18.72,55.45,55.45,0,0,0,12.48,15.2,57.572,57.572,0,0,0,17.33,10.19,59.681,59.681,0,0,0,41.48,0,57.568,57.568,0,0,0,17.33-10.19,55.452,55.452,0,0,0,12.48-15.2A52.847,52.847,0,0,0,362.77,383.51Z" transform="translate(-0.684 -16.6)" fill="#2d2931"/><path d="M306.05,456.54H306V419.31C306.05,432.23,306.05,441.9,306.05,456.54Z" transform="translate(-0.684 -15.6)" fill="#bcdeda"/><path d="M307.89,419.27Zm.4,0h0Zm.62,0h0Zm.48,0h0Zm.65-.05h0Zm.7-.07Zm.48-.05h0Zm.51-.06h0Zm.52-.06h0Zm.49-.07h0Zm.53-.08h0Zm.54-.09h0Zm.51-.09h0Zm.53-.1h0Zm.53-.1h0Zm.51-.11h0Zm.53-.12h0Zm.48-.11h0Zm.52-.13h0Zm.51-.13h0Zm.5-.13.17-.05Zm.52-.15h0Zm.5-.14.14-.05Zm.48-.15.15-.05Zm.48-.16.16-.05Zm.49-.16.16-.05Zm.52-.18h0Zm.49-.17h0Zm-54,.9a57.573,57.573,0,0,0,17.33,10.19A59.28,59.28,0,0,0,306,431.34h0v-12a46.539,46.539,0,0,1-16.56-3A45.369,45.369,0,0,1,275.67,408a43.489,43.489,0,0,1-9.79-12.31,41.4,41.4,0,0,1-4.62-15.14q1.75,17,3.52,33.95,1.52,1.5,3.15,2.93Zm38.09,1.8Zm44.61-37.61a4.033,4.033,0,0,1-.07.5C350.56,382,350.59,381.87,350.61,381.7Zm-.15,1a1.1,1.1,0,0,1-.08.5C350.41,383,350.44,382.87,350.46,382.7Zm-.16,1a2.663,2.663,0,0,1-.1.49c.03-.19.07-.33.1-.5Zm-.2,1a2.734,2.734,0,0,1-.1.48,2.6,2.6,0,0,1,.1-.5Zm-.21,1-.12.48Zm-.24,1a1.569,1.569,0,0,1-.13.47c.05-.23.09-.39.13-.55Zm-.26,1a1.681,1.681,0,0,1-.14.47c.05-.28.1-.43.14-.59Zm-.28.95L349,389Zm-.31.94c-.05.16-.1.31-.16.46.06-.27.11-.42.16-.58Zm-.33.94c-.05.15-.11.29-.16.44a3.352,3.352,0,0,1,.16-.56Zm-.35.92c-.05.15-.11.29-.17.44a3.213,3.213,0,0,1,.17-.56Zm-.37.92-.18.43Zm-.39.9-.19.42Zm-.41.9c-.07.13-.13.27-.2.41a1.14,1.14,0,0,1,.25-.53Zm-.43.88-.21.41Zm4.19-14.1q-1.09,10.62-2.2,21.24l-.27,2.64-.15,1.39,2.65-25.53c0,.21-.05.42-.07.63.01-.24.03-.32.04-.49Zm-15.19,27.89-.32.26Zm-.77.62-.33.26ZM334,410l-.32.24Zm-.8.59-.34.25Zm-.82.58-.34.24Zm-.83.57-.34.22Zm-.84.54-.34.21Zm-.86.53-.34.2Zm-.87.51-.35.19Zm-.88.49-.36.19Zm-.89.47-.36.18Zm-.91.45-.36.17Zm-.92.43-.37.17Zm-.93.42-.38.16Zm-.94.39-.39.15Zm-1,.38Zm13.74-8.21h0l-.31.27Zm1.51-1.37-.3.29Zm-.73.68-.3.27Zm1.44-1.37-.3.3Zm5.6-6.86c-.08.13-.16.25-.25.37.07-.16.18-.28.23-.41Zm-.55.82-.26.37Zm-.57.8-.27.36Zm-.59.79-.27.35Zm-.6.78c-.09.11-.19.22-.28.34a1.582,1.582,0,0,1,.26-.38Zm-.63.76-.28.33Zm-.64.75-.28.32Zm-.66.74-.29.31Zm-.67.71-.3.32Zm6.45-8.67c-.07.14-.15.27-.23.4a3.609,3.609,0,0,1,.21-.44Zm-.49.85-.24.39Zm-.52.84-.24.38Zm1.44-2.47a.3.3,0,0,0,0-.08l-.21.4c.08-.15.17-.24.17-.36Z" transform="translate(-0.684 -15.6)" fill="#2d2931"/><path d="M267.93,417.43a57.567,57.567,0,0,0,17.33,10.19A59.28,59.28,0,0,0,306,431.34v-12a46.388,46.388,0,0,1-16.54-3A45.321,45.321,0,0,1,275.69,408a43.59,43.59,0,0,1-9.79-12.3,41.51,41.51,0,0,1-4.64-15.13l3.52,33.91Q266.3,416,267.93,417.43Z" transform="translate(-0.684 -15.6)" fill="#bcdeda"/><path d="M347,34.49c2-.75,4-1.45,6.11-2.11s4.14-1.27,6.23-1.84,4.2-1.09,6.32-1.57,4.26-.91,6.4-1.29c1.75-.31,3.52-.6,5.29-.85s3.54-.47,5.33-.66,3.57-.35,5.36-.48,3.58-.22,5.38-.28l1.8,72.86a56.671,56.671,0,0,0-18.53,5,52,52,0,0,0-14.92,10.38,46.722,46.722,0,0,0-9.93,14.58,43.429,43.429,0,0,0-3.51,17.6l2.66,230a41.14,41.14,0,0,1-3.36,16.8A43.161,43.161,0,0,1,338,406.45a45.12,45.12,0,0,1-14.37,9.4,46.82,46.82,0,0,1-35.33,0,45.192,45.192,0,0,1-14.36-9.4,42.851,42.851,0,0,1-9.57-13.84,41.139,41.139,0,0,1-3.36-16.8l2.66-230c0-2.11.11-4.21.25-6.31s.34-4.19.6-6.27.57-4.16.94-6.22.8-4.12,1.29-6.15a112.913,112.913,0,0,1,8.1-22.75,115.381,115.381,0,0,1,5.83-10.61,122.255,122.255,0,0,1,7-10.07,124.826,124.826,0,0,1,12.18-13.62,129.542,129.542,0,0,1,14.08-11.78,136.192,136.192,0,0,1,15.77-9.82A141.414,141.414,0,0,1,347,34.49Z" transform="translate(-0.684 -15.6)" fill="#bcdeda"/><path d="M597.44,184.31a6.568,6.568,0,0,1,2.309.42,6.74,6.74,0,0,1,1.941,1.14,5.93,5.93,0,0,1,1.39,1.69,5.251,5.251,0,0,1,.62,2.06,84.087,84.087,0,0,1-4.78,35.72,87,87,0,0,1-18.77,30.06,96.12,96.12,0,0,1-30.08,21.24,106.641,106.641,0,0,1-38.44,9.23l4.86,89.94a5.708,5.708,0,0,0-.6-2.28,6.271,6.271,0,0,0-1.42-1.86,6.46,6.46,0,0,0-4.42-1.71,6.229,6.229,0,0,0-2.35.45,5.7,5.7,0,0,0-1.88,1.26,5.371,5.371,0,0,0-1.22,1.86,5.55,5.55,0,0,0-.36,2.28l-4.87-95.38a5.07,5.07,0,0,1,.36-2.17,5.209,5.209,0,0,1,1.19-1.77,5.7,5.7,0,0,1,1.83-1.2,6.191,6.191,0,0,1,2.3-.43,96,96,0,0,0,34.68-6.35,86.589,86.589,0,0,0,27.8-17.26,78.16,78.16,0,0,0,18.31-25.43A74.329,74.329,0,0,0,592.26,195H500.85a6.47,6.47,0,0,1-4.21-1.56,5.688,5.688,0,0,1-1.33-1.69,5.119,5.119,0,0,1-.57-2.08l-4.15-81.47H406.86l7.45,267.66a5.66,5.66,0,0,0-.54-2.28,6.1,6.1,0,0,0-1.37-1.86,6.481,6.481,0,0,0-6.77-1.27,6,6,0,0,0-1.92,1.26,5.651,5.651,0,0,0-1.27,1.86,5.579,5.579,0,0,0-.42,2.28L395.44,108.5a44.11,44.11,0,0,0-14.15,4.19A40.9,40.9,0,0,0,370,120.9a36.31,36.31,0,0,0-7.5,11.35,34.151,34.151,0,0,0-2.62,13.59l3.39,230A52.46,52.46,0,0,1,359,397.22a55.16,55.16,0,0,1-12.16,17.68,57.5,57.5,0,0,1-18.31,12,59.56,59.56,0,0,1-45.08,0,57.5,57.5,0,0,1-18.31-12A55,55,0,0,1,253,397.22a52.459,52.459,0,0,1-4.21-21.41l3.38-230q.06-3.42.3-6.83t.67-6.79c.28-2.25.63-4.5,1-6.73s.88-4.45,1.42-6.65a120.616,120.616,0,0,1,3.77-12.58,123.071,123.071,0,0,1,11.42-23.51,127.527,127.527,0,0,1,7.57-10.87,134.4,134.4,0,0,1,13.21-14.71A140.237,140.237,0,0,1,306.8,44.45a146.439,146.439,0,0,1,17.05-10.58,154.011,154.011,0,0,1,18.67-8.35q3.27-1.2,6.61-2.28c2.23-.71,4.47-1.37,6.74-2s4.54-1.18,6.84-1.7,4.59-1,6.91-1.39,4.78-.79,7.19-1.11,4.83-.58,7.26-.8,4.86-.37,7.3-.48,4.87-.16,7.31-.16a6.26,6.26,0,0,1,2.19.38,5.78,5.78,0,0,1,1.81,1,5,5,0,0,1,1.24,1.53,4.249,4.249,0,0,1,.49,1.89L406.57,98h89.19a6.57,6.57,0,0,1,2.23.39,6.211,6.211,0,0,1,1.87,1.09,5.46,5.46,0,0,1,1.31,1.61,4.81,4.81,0,0,1,.56,2l4.4,81.25Zm-202.25-86-1.8-72.86c-1.8.06-3.59.16-5.38.29s-3.58.28-5.36.47-3.56.41-5.33.66-3.54.54-5.29.85q-3.21.57-6.4,1.29c-2.12.48-4.22,1-6.32,1.57s-4.17,1.18-6.23,1.84S349,33.74,347,34.49a141.435,141.435,0,0,0-17.26,7.74,136.2,136.2,0,0,0-15.77,9.82,129.542,129.542,0,0,0-14.08,11.78,124.825,124.825,0,0,0-12.18,13.62,120.559,120.559,0,0,0-7,10.07,115.41,115.41,0,0,0-5.83,10.61,112.672,112.672,0,0,0-4.65,11.13,115.009,115.009,0,0,0-3.45,11.62q-.73,3-1.29,6.15c-.37,2.06-.69,4.13-.94,6.22s-.46,4.17-.6,6.27-.23,4.2-.25,6.31l-2.66,230a41.141,41.141,0,0,0,3.36,16.8,42.85,42.85,0,0,0,9.6,13.82,45,45,0,0,0,14.36,9.4,46.82,46.82,0,0,0,35.33,0,45.12,45.12,0,0,0,14.37-9.4,43,43,0,0,0,9.57-13.84,41.138,41.138,0,0,0,3.36-16.8l-2.66-230a43.271,43.271,0,0,1,3.51-17.6,46.721,46.721,0,0,1,9.93-14.58,52,52,0,0,1,14.92-10.38,56.919,56.919,0,0,1,18.53-5" transform="translate(-0.684 -15.6)" fill="#2d2931"/><path d="M500.85,195h91.41a74.331,74.331,0,0,1-6.42,30.87,78.162,78.162,0,0,1-18.31,25.43,86.59,86.59,0,0,1-27.8,17.26,96,96,0,0,1-34.68,6.35,6.19,6.19,0,0,0-2.3.43,5.59,5.59,0,0,0-1.83,1.2,5.212,5.212,0,0,0-1.19,1.77,5.07,5.07,0,0,0-.36,2.17l4.87,95.38a40.34,40.34,0,0,1-11.73,30.64,42.651,42.651,0,0,1-14,9.4A45.279,45.279,0,0,1,461,419.31a47.68,47.68,0,0,1-32.54-12.86,45.426,45.426,0,0,1-10.11-13.84,42.172,42.172,0,0,1-4-16.8L406.9,108.15h83.73l4.15,81.47a5.119,5.119,0,0,0,.57,2.08,5.692,5.692,0,0,0,1.33,1.69,6.47,6.47,0,0,0,4.21,1.56Z" transform="translate(-0.684 -15.6)" fill="#bcdeda"/><path d="M411,404.22a59,59,0,0,0,9.36,11,60.65,60.65,0,0,0,41.11,16.08,59.253,59.253,0,0,0,11.8-1.18,57.681,57.681,0,0,0,10.89-3.38,55.235,55.235,0,0,0,9.7-5.34,53.706,53.706,0,0,0,8.28-7l-18.59,37.66a49.648,49.648,0,0,1-16.32,11.29,50.944,50.944,0,0,1-9.86,3.09,52.876,52.876,0,0,1-10.69,1.08,54.281,54.281,0,0,1-37.16-14.69,52.84,52.84,0,0,1-8.44-10.09C404.05,431.19,408,415.78,411,404.22Z" transform="translate(-0.684 -15.6)" fill="#bcdeda"/><path d="M502.14,414.42l-18.59,37.66A49.792,49.792,0,0,1,476,458.5a50.806,50.806,0,0,1-8.8,4.87,51.612,51.612,0,0,1-9.86,3.08,52.876,52.876,0,0,1-10.69,1.08,54.282,54.282,0,0,1-37.16-14.69,52.844,52.844,0,0,1-8.44-10.09L411,404.22a59,59,0,0,0,9.36,11,60.647,60.647,0,0,0,41.11,16.08,59.253,59.253,0,0,0,11.8-1.18,56,56,0,0,0,20.59-8.71A53.7,53.7,0,0,0,502.14,414.42Z" transform="translate(-0.684 -15.6)" fill="#2d2931"/><path d="M471.26,493.14q2.19-4.93,4.06-10t3.4-10.18q1.54-5.13,2.75-10.37t2.08-10.54l18.59-37.66q-.94,5.82-2.25,11.54t-3,11.36q-1.68,5.64-3.71,11.16t-4.44,10.93Z" transform="translate(-0.684 -15.6)" fill="#bcdeda"/><path d="M470.08,495.73l.3-.65.3-.64c.09-.22.19-.44.29-.65l.29-.65,17.5-33.74-.32.71-.32.71-.33.71-.33.71h0Q478.78,479,470.08,495.73Z" transform="translate(-0.684 -15.6)" fill="#bcdeda"/><path d="M470.08,495.73q8.7-16.74,17.38-33.49c-.28.62-.57,1.23-.87,1.85s-.59,1.23-.89,1.84-.6,1.22-.91,1.83l-.94,1.82-17.06,32.84c.29-.55.57-1.11.85-1.66s.56-1.11.83-1.67.55-1.12.82-1.68Z" transform="translate(-0.684 -15.6)" fill="#bcdeda"/><path d="M483.85,469.59l-17.07,32.84q3.11-6,5.71-12.12t4.69-12.45q2.1-6.3,3.69-12.76c1.06-4.29,2-8.64,2.68-13l18.59-37.66q-1.17,7.2-2.9,14.26t-4,14q-2.28,6.92-5.13,13.65T483.85,469.59Z" transform="translate(-0.684 -15.6)" fill="#2d2931"/><path d="M145.23,502.45l-17.07-32.83-.93-1.82c-.3-.6-.61-1.21-.9-1.82s-.6-1.21-.89-1.82l-.87-1.84h0L142,495.8c.26.56.53,1.12.79,1.67l.81,1.67.83,1.66C144.66,501.35,144.94,501.9,145.23,502.45Z" transform="translate(-0.684 -15.6)" fill="#bcdeda"/><path d="M212.13,397.36a89.68,89.68,0,0,0,12,28.61,93.652,93.652,0,0,0,20.94,23,97,97,0,0,0,28,15.36,100.1,100.1,0,0,0,65.91,0A97,97,0,0,0,367,449a93.876,93.876,0,0,0,20.94-23,89.36,89.36,0,0,0,12-28.52L391,436.59a82.255,82.255,0,0,1-10.92,26.07,85.621,85.621,0,0,1-19,21,88,88,0,0,1-25.33,14,89.949,89.949,0,0,1-59.6,0,87.46,87.46,0,0,1-25.31-14,85.57,85.57,0,0,1-19-21A82.47,82.47,0,0,1,221,436.47C218.33,424.74,214.78,409.09,212.13,397.36Z" transform="translate(-0.684 -15.6)" fill="#2d2931"/><path d="M210.72,442l-9.94-38.6a101.12,101.12,0,0,0,14,31.12,106.383,106.383,0,0,0,23.58,25.05,109.563,109.563,0,0,0,31.14,16.69,113.061,113.061,0,0,0,72.77.07,109.854,109.854,0,0,0,31-16.49A106.363,106.363,0,0,0,396.85,435,101,101,0,0,0,411,404.22l-9.92,38.53A93,93,0,0,1,388.2,470.9a96.757,96.757,0,0,1-21.36,22.62,98.89,98.89,0,0,1-28,15,101.44,101.44,0,0,1-65.78-.06,99.429,99.429,0,0,1-28.17-15.22,96.847,96.847,0,0,1-21.37-22.86A92.92,92.92,0,0,1,210.72,442Z" transform="translate(-0.684 -15.6)" fill="#2d2931"/><path d="M200.78,403.38a101.12,101.12,0,0,0,14,31.12,106.57,106.57,0,0,0,23.58,25.05,109.811,109.811,0,0,0,31.14,16.69,113.06,113.06,0,0,0,72.77.07,109.851,109.851,0,0,0,31-16.49A106.358,106.358,0,0,0,396.85,435,101,101,0,0,0,411,404.22l-9.92,38.53A93.005,93.005,0,0,1,388.2,470.9a96.759,96.759,0,0,1-21.36,22.62,98.89,98.89,0,0,1-28,15,101.439,101.439,0,0,1-65.78-.06,99.429,99.429,0,0,1-28.17-15.22,97,97,0,0,1-21.37-22.86A93,93,0,0,1,210.72,442Z" transform="translate(-0.684 -15.6)" fill="#bcdeda"/><path d="M128.15,469.59q1,1.94,2.07,3.87c.7,1.28,1.42,2.56,2.16,3.83s1.49,2.53,2.26,3.79,1.56,2.51,2.36,3.76q5.2,8,11.15,15.52a182.468,182.468,0,0,0,12.66,14.38,191.563,191.563,0,0,0,14.13,13.15q7.43,6.25,15.56,11.85,4,2.78,8.27,5.38t8.56,5q4.35,2.4,8.82,4.58t9.06,4.13q4.65,2,9.43,3.76t9.64,3.28q4.86,1.51,9.81,2.8T264,571q5.2,1.06,10.44,1.87T285,574.18q5.25.52,10.51.8c3.51.18,7,.27,10.52.27s7-.09,10.53-.27,7-.45,10.51-.8,7-.81,10.48-1.34,7-1.16,10.44-1.87,6.65-1.46,10-2.32,6.57-1.79,9.81-2.8,6.46-2.11,9.64-3.28,6.32-2.43,9.43-3.76,6.07-2.68,9-4.13,5.93-3,8.83-4.58,5.75-3.25,8.56-5,5.56-3.53,8.27-5.38q8.12-5.6,15.56-11.85a188.918,188.918,0,0,0,14.13-13.15q6.69-6.89,12.66-14.38A187.781,187.781,0,0,0,475,484.84c.81-1.25,1.59-2.5,2.36-3.76s1.53-2.52,2.27-3.79,1.46-2.55,2.16-3.83,1.4-2.57,2.07-3.87l-17.07,32.84c-.61,1.18-1.24,2.36-1.88,3.52s-1.3,2.34-2,3.49-1.36,2.31-2.06,3.46-1.42,2.29-2.15,3.42q-4.73,7.33-10.12,14.14a171.714,171.714,0,0,1-11.48,13.08q-6.09,6.27-12.8,12a165.681,165.681,0,0,1-14.08,10.77q-3.67,2.52-7.47,4.88T395,575.67q-3.93,2.18-8,4.16c-2.7,1.32-5.42,2.57-8.18,3.75s-5.64,2.34-8.51,3.41-5.77,2-8.7,3-5.88,1.77-8.85,2.55-6,1.47-9,2.1-6.27,1.21-9.42,1.7-6.29.89-9.45,1.21-6.32.56-9.48.73-6.32.24-9.49.24-6.32-.08-9.49-.24-6.32-.41-9.48-.73-6.3-.73-9.45-1.21-6.29-1-9.43-1.7-6-1.33-9-2.1-5.92-1.62-8.85-2.55-5.83-1.91-8.7-3-5.71-2.2-8.51-3.41-5.48-2.43-8.18-3.75-5.35-2.71-8-4.16-5.2-2.95-7.74-4.53-5-3.2-7.47-4.88q-7.35-5.07-14.08-10.77a173.211,173.211,0,0,1-12.8-12q-6.06-6.25-11.48-13.08t-10.12-14.14c-.73-1.13-1.45-2.27-2.15-3.42s-1.39-2.3-2.06-3.46-1.33-2.32-2-3.49-1.27-2.34-1.88-3.52Z" transform="translate(-0.684 -15.6)" fill="#2d2931"/><path d="M153.28,516.32c-.73-1.13-1.45-2.27-2.15-3.42s-1.38-2.29-2-3.45-1.33-2.31-2-3.48-1.27-2.34-1.88-3.52l-17.07-32.83c.68,1.29,1.36,2.58,2.07,3.86s1.42,2.55,2.16,3.82,1.49,2.53,2.26,3.79,1.55,2.5,2.35,3.75q5.2,8,11.15,15.52a182.454,182.454,0,0,0,12.66,14.38,191.552,191.552,0,0,0,14.13,13.15q7.43,6.25,15.56,11.84l1,.69,1,.67,1,.68,1,.66c.42,1,1,2.35,1.39,3.35s1,2.43,1.44,3.47,1,2.46,1.45,3.51l1.43,3.48c.43,1,1,2.37,1.41,3.38s.93,2.27,1.34,3.24.88,2.13,1.26,3l1.16,2.81-.92-.61-.92-.61-.9-.61-.91-.62q-7.35-5.07-14.08-10.77a173.2,173.2,0,0,1-12.8-12q-6.06-6.25-11.48-13.08T153.28,516.32Z" transform="translate(-0.684 -15.6)" fill="#bcdeda"/><path d="M381.59,582.39l.3-.92.32-1,.34-1,.35-1.06.35-1.06.35-1.06.34-1,.32-1,.61-1.85.65-2,.69-2.1.72-2.18.73-2.21.73-2.21.71-2.16.69-2.08q4.17-1.87,8.25-3.92t8-4.28q4-2.22,7.83-4.62t7.58-5q8.12-5.58,15.56-11.84a191.742,191.742,0,0,0,14.13-13.15q6.69-6.89,12.66-14.38T475,484.84q1.2-1.87,2.36-3.76t2.26-3.8c.74-1.27,1.46-2.55,2.17-3.83s1.39-2.57,2.06-3.87l-17.06,32.84c-.62,1.18-1.24,2.36-1.89,3.53s-1.3,2.33-2,3.49-1.36,2.31-2.06,3.46-1.42,2.28-2.15,3.42q-4.73,7.33-10.12,14.14a171.8,171.8,0,0,1-11.48,13.08q-6.09,6.27-12.8,12a165.7,165.7,0,0,1-14.08,10.77c-2.24,1.55-4.53,3-6.85,4.5s-4.68,2.85-7.07,4.19-4.82,2.65-7.28,3.89S384.1,581.27,381.59,582.39Z" transform="translate(-0.684 -15.6)" fill="#bcdeda"/><path d="M371.91,586.41l.27-.92.29-1,.3-1,.3-1.05.31-1.07.31-1.05.3-1,.29-1,.53-1.81.56-1.94.6-2,.62-2.13.63-2.16.64-2.16.61-2.11.6-2,1.94-.75,1.94-.77,1.92-.79q1-.39,1.92-.81l.75-.32.75-.32.75-.33.75-.33q-4.11,12.43-8.2,24.88l-.68.3-.67.3-.68.3-.68.29-1.73.73-1.74.72-1.74.7Z" transform="translate(-0.684 -15.6)" fill="#bcdeda"/><path d="M233.12,583.58q-3.63-1.56-7.18-3.27c-2.37-1.14-4.71-2.34-7-3.58s-4.6-2.53-6.85-3.87-4.47-2.72-6.65-4.15l-10.88-26.28q3.63,2.37,7.37,4.57t7.58,4.27c2.56,1.37,5.16,2.68,7.78,3.94s5.27,2.46,8,3.6q4.65,2,9.43,3.75t9.64,3.29q4.86,1.51,9.81,2.8T264,571q5.2,1.06,10.44,1.87T285,574.18q5.25.52,10.51.8c3.51.18,7,.27,10.52.27s7-.09,10.53-.27,7-.45,10.51-.8,7-.81,10.48-1.34,7-1.16,10.44-1.87q4-.83,7.92-1.8c2.62-.65,5.24-1.36,7.83-2.11s5.18-1.56,7.74-2.42,5.1-1.76,7.62-2.71l-7.16,24.48c-2.27.86-4.57,1.68-6.88,2.46s-4.64,1.51-7,2.19-4.7,1.32-7.07,1.92-4.75,1.13-7.14,1.63c-3.13.65-6.27,1.21-9.42,1.7s-6.29.88-9.45,1.21-6.32.56-9.48.73-6.32.24-9.49.24-6.32-.08-9.49-.24-6.32-.41-9.48-.73-6.3-.73-9.45-1.21-6.29-1-9.42-1.7-6-1.33-9-2.1-5.92-1.62-8.85-2.55-5.83-1.91-8.7-3S235.92,584.79,233.12,583.58Z" transform="translate(-0.684 -15.6)" fill="#bcdeda"/><path d="M154.4,333.26a45.59,45.59,0,0,1,17.18,3.31,42.82,42.82,0,0,1,13.86,9.07,40.32,40.32,0,0,1,12.25,30.17,99.079,99.079,0,0,0,7.48,40.72A103.471,103.471,0,0,0,228,450.46a108.89,108.89,0,0,0,34.84,23.24,112.919,112.919,0,0,0,79.46,2.61,109.849,109.849,0,0,0,31-16.49A106.357,106.357,0,0,0,396.85,435,101,101,0,0,0,411,404.22a59,59,0,0,0,9.36,11,60.65,60.65,0,0,0,41.11,16.08,59.254,59.254,0,0,0,11.8-1.18,57.68,57.68,0,0,0,10.89-3.38,55.226,55.226,0,0,0,9.7-5.34,53.709,53.709,0,0,0,8.28-7,183.507,183.507,0,0,1-9.81,36.37,186.116,186.116,0,0,1-7.73,17.35,191.029,191.029,0,0,1-9.6,16.71q-5.21,8-11.15,15.52a179.781,179.781,0,0,1-12.66,14.38q-6.7,6.88-14.13,13.15T421.5,539.73q-4.06,2.79-8.27,5.38t-8.56,5q-4.35,2.4-8.83,4.58t-9,4.13q-4.65,2-9.43,3.75t-9.64,3.29c-3.24,1-6.52,1.95-9.81,2.8s-6.61,1.63-10,2.32-6.95,1.33-10.44,1.87-7,1-10.48,1.34-7,.62-10.51.8-7,.27-10.53.27-7-.09-10.52-.27-7-.45-10.51-.8-7-.81-10.49-1.34-7-1.16-10.44-1.87-6.66-1.46-10-2.32-6.57-1.79-9.81-2.8-6.46-2.11-9.64-3.29-6.33-2.42-9.43-3.75-6.07-2.68-9.05-4.13-5.93-3-8.83-4.58-5.75-3.26-8.56-5-5.56-3.52-8.27-5.38q-8.12-5.57-15.56-11.84t-14.13-13.15q-6.69-6.89-12.66-14.38A182.659,182.659,0,0,1,137,484.84a187.753,187.753,0,0,1-13.88-25.73,181.859,181.859,0,0,1-15.36-83.3,42.3,42.3,0,0,1,4.38-16.66,45.411,45.411,0,0,1,10.25-13.51,47.6,47.6,0,0,1,32-12.38Z" transform="translate(-0.684 -16.6)" fill="#bcdeda"/><path d="M491.73,481.84l-17.87,31.75c-.43.76-.87,1.52-1.31,2.28s-.89,1.52-1.34,2.28l-1.38,2.26-1.42,2.24a184.074,184.074,0,0,1-10.73,15.06,166.179,166.179,0,0,1-12.17,13.94q-6.49,6.65-13.59,12.74a187.249,187.249,0,0,1-15,11.48q-3.9,2.7-7.95,5.22t-8.23,4.83q-4.18,2.31-8.48,4.43t-8.7,4q-4.49,1.93-9.07,3.64c-3,1.13-6.14,2.2-9.26,3.18s-6.26,1.89-9.43,2.72-6.35,1.57-9.56,2.24-6.67,1.29-10,1.81-6.71.95-10.07,1.3-6.72.6-10.09.78-6.73.26-10.1.26-6.74-.09-10.1-.26-6.73-.44-10.09-.78-6.72-.78-10.07-1.3-6.69-1.12-10-1.81-6.39-1.41-9.56-2.24-6.31-1.74-9.43-2.72-6.21-2-9.27-3.18-6.08-2.35-9.06-3.64-5.83-2.6-8.7-4-5.69-2.89-8.48-4.43-5.53-3.16-8.23-4.83-5.35-3.42-8-5.22q-7.81-5.4-15-11.47a176.281,176.281,0,0,1-13.59-12.75,187.578,187.578,0,0,1-22.9-29l-1.41-2.23c-.46-.75-.92-1.5-1.37-2.25s-.89-1.5-1.33-2.26-.88-1.51-1.31-2.27l-17.86-31.75c.47.84.94,1.67,1.42,2.5l1.47,2.48c.5.82,1,1.65,1.51,2.47s1,1.63,1.55,2.45a202.274,202.274,0,0,0,11.8,16.55q6.31,7.97,13.42,15.32a201.413,201.413,0,0,0,15,14q7.87,6.63,16.61,12.66,4.32,3,8.8,5.75t9.11,5.32q4.62,2.55,9.39,4.88t9.7,4.43q5,2.12,10.05,4t10.27,3.51q5.17,1.63,10.45,3t10.6,2.47q5.55,1.16,11.12,2t11.16,1.43q5.59.58,11.19.86c3.74.19,7.47.29,11.21.29s7.47-.1,11.21-.29,7.46-.47,11.19-.86,7.45-.85,11.16-1.43,7.42-1.23,11.12-2,7.09-1.56,10.6-2.47,7-1.91,10.45-3S378.61,576,382,574.7s6.74-2.59,10.05-4,6.46-2.87,9.63-4.43,6.31-3.18,9.39-4.88,6.13-3.48,9.11-5.32,5.92-3.76,8.8-5.75q8.63-6,16.53-12.64a196.472,196.472,0,0,0,15-14,203.162,203.162,0,0,0,13.42-15.32q6.32-7.99,11.8-16.55c.53-.82,1.05-1.64,1.56-2.47s1-1.65,1.52-2.48,1-1.66,1.47-2.49S491.26,482.68,491.73,481.84Z" transform="translate(-0.684 -17.6)" fill="#2d2931"/><path d="M510.05,370a6.661,6.661,0,0,1,2.41.45,6.8,6.8,0,0,1,2,1.26,6.4,6.4,0,0,1,1.41,1.86,5.89,5.89,0,0,1,.61,2.28q.27,5.1.28,10.23c0,3.42-.08,6.85-.25,10.27s-.44,6.85-.8,10.27-.8,6.84-1.34,10.24a193.282,193.282,0,0,1-4.15,19.6,190.311,190.311,0,0,1-6.16,19.09A195.58,195.58,0,0,1,495.92,474a204.946,204.946,0,0,1-21.98,34.34q-6.31,7.97-13.42,15.32a204.477,204.477,0,0,1-15,14q-7.88,6.65-16.52,12.66-4.32,3-8.8,5.75t-9.11,5.32c-3.08,1.7-6.22,3.33-9.39,4.88s-6.39,3-9.63,4.43-6.66,2.75-10.05,4-6.81,2.43-10.27,3.51-6.94,2.09-10.45,3-7,1.74-10.6,2.47-7.4,1.43-11.12,2-7.43,1.05-11.16,1.43-7.46.67-11.19.86-7.47.29-11.21.29-7.47-.1-11.21-.29-7.46-.47-11.19-.86-7.45-.85-11.16-1.43-7.42-1.23-11.12-2-7.09-1.56-10.6-2.47-7-1.91-10.45-3S233.39,576,230,574.7s-6.74-2.59-10.05-4-6.46-2.87-9.63-4.43-6.31-3.18-9.39-4.88-6.13-3.48-9.11-5.32-5.92-3.76-8.8-5.75q-8.62-6-16.53-12.63a191.426,191.426,0,0,1-15-14q-7.09-7.33-13.42-15.32a202.775,202.775,0,0,1-25.91-42.62,192.939,192.939,0,0,1-16.88-84.19c0-.47,0-.95,0-1.43l.06-1.43.06-1.44a9.454,9.454,0,0,1,.07-1.43,54,54,0,0,1,5.63-21.17,58.089,58.089,0,0,1,13.06-17.14A61.069,61.069,0,0,1,132.72,326a60.44,60.44,0,0,1,22.13-4.19A57.94,57.94,0,0,1,176.58,326a54.661,54.661,0,0,1,17.59,11.4,52.062,52.062,0,0,1,11.73,17,51.211,51.211,0,0,1,4.1,21.06,88.81,88.81,0,0,0,6.73,36.27A92.179,92.179,0,0,0,237,441.83a96.638,96.638,0,0,0,30.86,20.54,99.951,99.951,0,0,0,76.36,0A96.54,96.54,0,0,0,375,441.87a92,92,0,0,0,20.27-30,88.13,88.13,0,0,0,6.74-36.07,5.58,5.58,0,0,1,.42-2.28,5.8,5.8,0,0,1,1.27-1.86,6,6,0,0,1,1.92-1.26,6.692,6.692,0,0,1,6.75,1.31,6.1,6.1,0,0,1,1.37,1.86,5.661,5.661,0,0,1,.54,2.28,42.169,42.169,0,0,0,4,16.8,45.3,45.3,0,0,0,10.12,13.84A47.63,47.63,0,0,0,461,419.31a45.37,45.37,0,0,0,17.53-3.46,42.87,42.87,0,0,0,14-9.4,40.34,40.34,0,0,0,11.73-30.64,5.552,5.552,0,0,1,.36-2.28,5.37,5.37,0,0,1,1.22-1.86,5.7,5.7,0,0,1,1.88-1.26A6.229,6.229,0,0,1,510.05,370Zm-7.91,44.46a53.71,53.71,0,0,1-8.28,7,56,56,0,0,1-20.59,8.71,59.25,59.25,0,0,1-11.8,1.18,60.65,60.65,0,0,1-41.11-16.08,59,59,0,0,1-9.36-11A101,101,0,0,1,396.85,435a106.357,106.357,0,0,1-23.56,24.79,109.851,109.851,0,0,1-31,16.49,112.919,112.919,0,0,1-79.46-2.61A109,109,0,0,1,228,450.47a103.61,103.61,0,0,1-22.81-33.94,99.082,99.082,0,0,1-7.48-40.72,40.32,40.32,0,0,0-12.25-30.17,43,43,0,0,0-13.86-9.07,45.589,45.589,0,0,0-17.18-3.31,47.6,47.6,0,0,0-32,12.38,45.412,45.412,0,0,0-10.25,13.51,42.3,42.3,0,0,0-4.38,16.66,181.876,181.876,0,0,0,15.36,83.31A188.227,188.227,0,0,0,137,484.84q5.2,8,11.15,15.52a182.469,182.469,0,0,0,12.66,14.38,191.548,191.548,0,0,0,14.13,13.15q7.43,6.25,15.56,11.85,4,2.78,8.27,5.38t8.56,5q4.35,2.4,8.82,4.58t9.06,4.13q4.65,2,9.43,3.76t9.64,3.28q4.86,1.51,9.81,2.8T264,571q5.2,1.06,10.44,1.87T285,574.18q5.25.52,10.51.8c3.51.18,7,.27,10.52.27s7-.09,10.53-.27,7-.45,10.51-.8,7-.81,10.48-1.34,7-1.16,10.44-1.87,6.65-1.46,10-2.32,6.57-1.79,9.81-2.8,6.46-2.11,9.64-3.28,6.32-2.43,9.43-3.76,6.07-2.68,9-4.13,5.93-3,8.83-4.58,5.75-3.25,8.56-5,5.56-3.53,8.27-5.38q8.12-5.6,15.56-11.85a188.894,188.894,0,0,0,14.13-13.15q6.69-6.89,12.66-14.38a191.05,191.05,0,0,0,20.73-32.21,184.84,184.84,0,0,0,17.57-53.71" transform="translate(-0.684 -16.6)" fill="#2d2931"/><path d="M264.786,395.378c-6.078,1.867-3.144,6.934-3.144,6.934l28.537,15.869,10.135,25.737,8,.667,4-22.67-4-11.735-23.07-1.867Z" fill="#2d2931"/></g></g></svg>